<svg id="Layer_1" data-name="Layer 1" xmlns="http://www.w3.org/2000/svg" viewBox="0 0 134.96 152.82"><defs><style>.cls-1{fill:#fff;stroke:#fff;stroke-miterlimit:10;stroke-width:0.68px;}</style></defs><title>logo</title><g id="layer1"><path id="path3041" class="cls-1" d="M59.28,151.93a8.39,8.39,0,0,0-1.22-.26c-.31,0-.56-.12-.56-.19s-.42-.12-1-.11c-2.27,0-3.75-.2-4.09-.65a3.1,3.1,0,0,0-.58-.51c-.36-.25-.63-.3-1.9-.34a6,6,0,0,0-1.69.09c-.15.09-.42.08-.86,0-1.2-.29-1.34-.3-1.65-.1A1.17,1.17,0,0,1,45,150c-.25,0-.7-.08-1-.09s-.54-.09-.57-.25.1-.26.56-.38.6-.2.6-.25-.4-.27-1.32-.53a6.28,6.28,0,0,1-.72-.24,1.12,1.12,0,0,0-.31-.1c-.73-.11-.65-.39.16-.51a1.68,1.68,0,0,1,1.15.19A8.92,8.92,0,0,0,47.4,149a2.88,2.88,0,0,0,1.12-.14c.1-.1.26-.08.57.08a4.27,4.27,0,0,0,2.62-.13c.47-.17.51-.16,1.07.29a3.33,3.33,0,0,1,.62.58,1.38,1.38,0,0,0,1.16.44,4.44,4.44,0,0,1,1.34.19,2.41,2.41,0,0,0,1.29.14c.42-.16,1.32-.15,1.42,0a.64.64,0,0,0,.45.13,2.59,2.59,0,0,1,.82.19c.46.19,1.34.15,3.4-.18a13.7,13.7,0,0,1,1.5-.15c.68,0,1.44-.35,1.5-.66,0-.1-.18-.3-.46-.45a4.56,4.56,0,0,1-.73-.48,6.19,6.19,0,0,0-2.88-.73,1.1,1.1,0,0,1-.93-.19c-.21-.15-.41-.24-.45-.2s-.29,0-.55-.18a1.31,1.31,0,0,0-.91-.18c-.25,0-.43,0-.43,0a1.35,1.35,0,0,0-.27-.47c-.23-.29-.32-.32-.54-.2s-.32.09-.54-.1-.26-.21-.2,0-.14.51-.52.51-.42-.32-.14-.44c.09,0,0-.07-.12-.08a.52.52,0,0,1-.36-.13,2.53,2.53,0,0,0-1-.07,6.22,6.22,0,0,1-1.61-.13,11.9,11.9,0,0,0-1.42-.27,5.6,5.6,0,0,1-1.18-.26,3.85,3.85,0,0,0-1.47-.12l-1.51.05a11.12,11.12,0,0,1-2.94-.75,6.62,6.62,0,0,0-2.78-.17,2.83,2.83,0,0,1-.85.17l-1.35.15a1.78,1.78,0,0,1-.92-.07,1.76,1.76,0,0,0-.74-.14,1.12,1.12,0,0,1-.66-.16,4.82,4.82,0,0,0-1.52-.52c-.5-.08-.52-.52,0-.69s.52-.09,1.2.22a8.17,8.17,0,0,0,2.43.6,5.44,5.44,0,0,1,1-.13c.5,0,1.24-.1,1.66-.15a2.51,2.51,0,0,1,1.12.06,5.09,5.09,0,0,0,1.22.2,20.18,20.18,0,0,1,2,.27l1.58.29a7.05,7.05,0,0,0,2.14.05,2.12,2.12,0,0,1,1.63.37c.36.34,1.12.43,3.67.46l2.18,0,.91.48c1.12.59,1.63.8,1.92.76a.33.33,0,0,1,.3.11.77.77,0,0,0,.52.14,2.77,2.77,0,0,1,.89.19,2.49,2.49,0,0,0,.85.18,1.81,1.81,0,0,1,.78.2c.56.31,2.46,1.19,2.64,1.22a1.32,1.32,0,0,1,1,.71c.11.45-.2,1.05-.55,1.05a1.32,1.32,0,0,0-.65.32,2.32,2.32,0,0,1-.94.41,2.52,2.52,0,0,0-.79.25,5.84,5.84,0,0,1-2.32,0c-.06,0-.18,0-.26.11a1.13,1.13,0,0,1-1.15.19c-.14-.12-.22-.12-.34,0s-.79.17-1.61-.08Zm-24.56-1.44a3.19,3.19,0,0,0-2-.17,2.79,2.79,0,0,1-1.91-.25,1,1,0,0,0-.57-.23,4.42,4.42,0,0,1-.8-.16,8.35,8.35,0,0,0-1-.22,2.53,2.53,0,0,1-1-.39,1.06,1.06,0,0,0-.88-.24,1.13,1.13,0,0,1-.79-.15,1.32,1.32,0,0,0-.64-.21.81.81,0,0,1-.49-.15,1.55,1.55,0,0,0-.79-.13,1.11,1.11,0,0,1-1-.36,2,2,0,0,0-.81-.47,1,1,0,0,1-.53-.26,1.66,1.66,0,0,0-1.24-.53,11.87,11.87,0,0,1-3.76-1.87,2.21,2.21,0,0,0-.59-.43,2.45,2.45,0,0,1-.61-.53,1.88,1.88,0,0,0-.69-.53c-.1,0-.3-.2-.43-.44a1.53,1.53,0,0,0-.56-.59c-.17-.08-.32-.2-.32-.26s-.16-.15-.36-.19a5.07,5.07,0,0,1-.76-.23,4.52,4.52,0,0,0-.57-.2,1.12,1.12,0,0,1-.4-.24.78.78,0,0,0-.39-.21.3.3,0,0,1-.23-.2c0-.13-.25-.2-.57-.2a.94.94,0,0,1-.74-.28,1.45,1.45,0,0,0-1.3-.54,2.17,2.17,0,0,1-1.72-.87,7.34,7.34,0,0,0-1.5-1.62c-.29-.27-.39-.46-.33-.64s-.17-.52-.32-.29a.27.27,0,0,1-.32.07c-.18-.07-.2-.18-.12-.56a2.44,2.44,0,0,0-.07-1.5c-.12-.3-.23-.36-.59-.36-.52,0-.67-.15-.81-.78s-.66-1.51-1-1.59-.51-.37-.76-1.19S.26,129.18.57,129a.37.37,0,0,0,.19-.48,1.16,1.16,0,0,1,.07-.66c.13-.31.12-.42,0-.56s-.18-.57-.16-1.75a8.22,8.22,0,0,0-.1-1.79,3.51,3.51,0,0,1-.13-1.05,5.55,5.55,0,0,0-.19-1.38,4.63,4.63,0,0,1,0-2.26c.08-.39.07-.44-.12-.37s-.28-.18-.07-1c.12-.49.11-.62-.09-.93s-.23-.61-.22-1.56c0-.66,0-1.2,0-1.2a1.91,1.91,0,0,0,.07-.38c.08-.65.17-.76.56-.72s.69-.09.69-.4a1.82,1.82,0,0,1,.39-.73,1.67,1.67,0,0,0,.39-.88,1.82,1.82,0,0,1,.57-1.26,1.16,1.16,0,0,0,.29-.46,4.2,4.2,0,0,1,.29-.78c.23-.49.35-.62.6-.62s.38-.12.52-.43a4.33,4.33,0,0,1,.61-.86c.4-.43.51-.75.28-.84-.07,0-.14-.19-.16-.37s0-.34.28-.41a.67.67,0,0,1,.49,0c.17.13.9-.33,1-.63a1.31,1.31,0,0,1,.53-.39c.26-.12.47-.28.47-.36a2.49,2.49,0,0,1,.57-.69,3.17,3.17,0,0,0,.7-.93c.09-.28.31-.47.81-.71s.65-.37.6-.42.15-.24.44-.42A1.35,1.35,0,0,0,11.53,99c0-.31.09-.42.35-.47a.43.43,0,0,0,.37-.42c0-.33.25-.47,1-.7.25-.07.3,0,.3.25s0,.34.09.34A10.38,10.38,0,0,0,15.53,97a2.68,2.68,0,0,1,.66-.39,5.11,5.11,0,0,0,1-.69,1.37,1.37,0,0,1,1.18-.41,4.39,4.39,0,0,0,.95-.09c.2-.08,2.18-.41,3.35-.56a4.71,4.71,0,0,0,1.1-.28,1.67,1.67,0,0,1,.92-.12A2.82,2.82,0,0,0,26.58,94a1.19,1.19,0,0,1,.45-.24,1.66,1.66,0,0,0,.54-.31,3,3,0,0,1,.7-.4.83.83,0,0,0,.42-.33.87.87,0,0,1,.54-.32,2.06,2.06,0,0,0,.73-.34,1.56,1.56,0,0,1,1-.25,2.66,2.66,0,0,0,1.21-.27,2.38,2.38,0,0,1,.76-.27.52.52,0,0,0,.38-.32,2.47,2.47,0,0,1,.9-.72c.91-.48,1.16-.74.94-1s-.19-.11-.31,0a.74.74,0,0,1-.46.16,4.7,4.7,0,0,0-1.3.59,5.75,5.75,0,0,1-1.19.59,1.16,1.16,0,0,0-.48.19,9.49,9.49,0,0,1-2.64.66,1.33,1.33,0,0,0-.65.18.61.61,0,0,1-.38.15,3.58,3.58,0,0,0-1,.53,2.28,2.28,0,0,1-1.32.53c-.62,0-1.72.27-1.72.42s-.09.1-.2.1a3,3,0,0,0-.78.27,1.5,1.5,0,0,1-.7.21,4.39,4.39,0,0,0-1.16.16c-1.16.25-1.8.28-1.89.08s.91-.72,1.33-.72a.62.62,0,0,0,.43-.12,2,2,0,0,1,.83-.22,1.7,1.7,0,0,0,1.08-.41,2.63,2.63,0,0,1,1.92-.7,4.89,4.89,0,0,0,1.27-.19c.31-.1.77-.23,1-.28a3.64,3.64,0,0,0,.66-.19l.6-.27a3.21,3.21,0,0,0,.68-.43.64.64,0,0,1,.62-.17,1.08,1.08,0,0,0,1-.42c.07-.11.24-.14.48-.09s.42,0,.63-.28.3-.33.45-.21.32.11.77,0a5.34,5.34,0,0,1,.85-.23,2.42,2.42,0,0,0,.68-.25,1.89,1.89,0,0,1,.62-.23c.3,0,.31-.56,0-.92a4.55,4.55,0,0,1-.43-3.22,1.6,1.6,0,0,0-.07-.72,22.21,22.21,0,0,1-.63-2.69,1.61,1.61,0,0,0-.28-.74c-.11-.07-.12-.28,0-.73a11.93,11.93,0,0,0,.08-1.87,4,4,0,0,1,.1-1.39,4,4,0,0,0,.06-2.27c-.13-.13-.19-.52-.19-1.35A2.93,2.93,0,0,1,34,70.81a4.79,4.79,0,0,0,.68-2.29A4,4,0,0,1,35,67.28a3.09,3.09,0,0,0,.31-1c0-.21,0-.37.11-.37a1.71,1.71,0,0,0,.42-.62L36.47,64a6.91,6.91,0,0,1,.64-1A7.79,7.79,0,0,0,38,61.81a6,6,0,0,1,.92-1.45,5.09,5.09,0,0,0,.72-1.25,6,6,0,0,1,.67-1.27,3.46,3.46,0,0,0,.51-.94.56.56,0,0,1,.2-.36.55.55,0,0,0,.2-.35c0-.1.18-.29.39-.41s.39-.3.39-.38.27-.31.59-.51a1.73,1.73,0,0,0,.59-.46,65.09,65.09,0,0,1,4.67-4.83,13.9,13.9,0,0,1,1.82-1,9.68,9.68,0,0,0,2.95-1.86,2.07,2.07,0,0,1,.87-.56c.19,0,.37-.16.54-.49a.93.93,0,0,1,.69-.57,1.33,1.33,0,0,0,.67-.38c.25-.31.5-.37,2.9-.74a1.8,1.8,0,0,0,.86-.49c.42-.42.48-.51.48-.75,0-.07.16-.2.36-.29a2.83,2.83,0,0,0,.72-.52c.59-.6,1.05-.75,3.06-1a6.28,6.28,0,0,0,1.18-.27,2.64,2.64,0,0,1,.94-.14,1,1,0,0,0,.63-.11.77.77,0,0,1,.53-.14c.27,0,.47-.08.51-.2S68,39.77,68,40s-.17.54-.31.54a4,4,0,0,0-.63.14c-.37.1-.5.22-.56.49l-.08.36-1.4,0a5.74,5.74,0,0,0-1.56.17,3.81,3.81,0,0,1-.87.34,2.81,2.81,0,0,0-2,1.43,4.77,4.77,0,0,1-.62.89,8.75,8.75,0,0,1-2.73.82,6,6,0,0,0-2.79,1.24,1.58,1.58,0,0,1-.58.4A8,8,0,0,0,52.1,48.3a2.75,2.75,0,0,1-.85.57.81.81,0,0,0-.46.33.48.48,0,0,1-.36.25,5.56,5.56,0,0,0-2.41,1,1.23,1.23,0,0,1-.56.4c-.11,0-.33.27-.49.59a1.67,1.67,0,0,1-.39.59,5.12,5.12,0,0,0-.71,1,2.93,2.93,0,0,1-1.26,1.39A1.79,1.79,0,0,0,44,55a6.78,6.78,0,0,1-1,1.08,4.61,4.61,0,0,0-1.26,1.74c-.17.43-.47,1.14-.68,1.58l-.62,1.3a2.87,2.87,0,0,1-.59.8,2.8,2.8,0,0,0-.56.71c-.12.23-.28.41-.35.41s-.23.22-.34.49a4,4,0,0,1-.52.86,1.34,1.34,0,0,0-.32.66,1.26,1.26,0,0,1-.26.61,1.32,1.32,0,0,0-.26.46,2,2,0,0,1-.21.52,7.72,7.72,0,0,0-.53,1.85,2.76,2.76,0,0,1-.18.53c-.14.31-.68,1.82-1,2.76a8.8,8.8,0,0,0-.2,2.5,54.1,54.1,0,0,1-.34,5.85c-.07.52,0,.72.44,1.6a3.11,3.11,0,0,1,.54,2.54c-.47,2.7-.46,2.86.51,4.71.43.82.51,1.08.41,1.28a.45.45,0,0,1-.32.25.62.62,0,0,0-.36.17,2.53,2.53,0,0,1-.63.36,4,4,0,0,0-.92.59,5.64,5.64,0,0,1-1.87,1.25.36.36,0,0,0-.32.2c-.05.13-.18.17-.4.12a7.34,7.34,0,0,0-3.07.93l-1.28.72a6.58,6.58,0,0,1-2.74.9,7.88,7.88,0,0,0-1,.15,22.42,22.42,0,0,1-3.17.53,14,14,0,0,0-1.94.33c-1.39.31-1.5.36-2.13,1a3.4,3.4,0,0,1-1.42.87,6.22,6.22,0,0,0-2.7,1.51,3.24,3.24,0,0,1-.59.69,1.28,1.28,0,0,0-.36.39s-.17.23-.39.39a24.57,24.57,0,0,0-2.26,2.24,3.69,3.69,0,0,1-.64.57c-.68.51-1.32,1.12-1.17,1.12s-.18.28-.54.62a20.65,20.65,0,0,0-1.94,2.55c-.71,1.06-1.37,2-1.47,2.08a14.63,14.63,0,0,0-1.39,2.79,3.35,3.35,0,0,1-.27.76,4.86,4.86,0,0,0-.32,1.35,3.7,3.7,0,0,1-.2,1c-.19.36.22,1.57.53,1.57a2.71,2.71,0,0,0,.5-1.15.72.72,0,0,1,.05-.29c0-.11.17-.6.28-1.1A4,4,0,0,1,2.86,114a7.25,7.25,0,0,0,1-1.47,4.88,4.88,0,0,1,.48-.76,1.13,1.13,0,0,0,.24-.53,3.66,3.66,0,0,1,.53-1.69c.23-.25.23-.28,0-.4a.43.43,0,0,1-.23-.31c0-.24.51-.59.73-.51s.4-.19.67-.5a28.7,28.7,0,0,1,3.93-3.66,7.44,7.44,0,0,0,2-1.83,2.58,2.58,0,0,1,.75-.67.37.37,0,0,0,.27-.18,7.38,7.38,0,0,1,2.45-1.07,1.44,1.44,0,0,0,.66-.41,1.19,1.19,0,0,1,1-.44c.08,0,.22-.19.31-.4a.91.91,0,0,1,.44-.48,17.18,17.18,0,0,1,2.71-.37,2.81,2.81,0,0,0,1.38-.42,9.65,9.65,0,0,1,2.92-1.2c.51-.06.57,0,.57.21s-.13.31-.56.42c-1,.26-1.41.41-1.41.53s-.09.12-.21.12a2.26,2.26,0,0,0-.79.48c-.48.4-.65.46-1,.4A.87.87,0,0,0,21,99a.73.73,0,0,1-.55.12.91.91,0,0,0-.56.07,5.19,5.19,0,0,1-1.15.27,1.75,1.75,0,0,0-1.23.49,5.67,5.67,0,0,1-2.8,1.62,3.73,3.73,0,0,0-2.08,1.57c-.13.29-.3.53-.38.53a1.61,1.61,0,0,0-.55.39,1.48,1.48,0,0,1-.59.39c-.1,0-.18.06-.18.12s-.12.16-.28.21a1.65,1.65,0,0,0-.51.3l-.6.54a4.78,4.78,0,0,0-.67.82c-.17.27-.36.49-.43.49A16.72,16.72,0,0,0,6.28,109a4.58,4.58,0,0,0-.91,2,11.24,11.24,0,0,1-1.73,3.37,2,2,0,0,0-.38.72c-.31,1.37-.48,2.15-.53,2.51a6,6,0,0,1-.43,1.18c-.36.76-.36.84-.34,2.84A12.76,12.76,0,0,0,2.11,124a.89.89,0,0,1,0,.63,8.41,8.41,0,0,0,.57,3.69,3.29,3.29,0,0,1,.2,1.28c0,.27,0,.5,0,.53a6.37,6.37,0,0,1,.47,1.16,4.89,4.89,0,0,0,1.12,2,8.6,8.6,0,0,1,1.59,2.45A4.46,4.46,0,0,0,7,136.87c.24.18.43.41.43.51,0,.38.74,1,1.58,1.27,1.23.44,1.75.28,1.25-.38a1.2,1.2,0,0,1-.2-.61c0-.24-.2-.55-.63-1s-.61-.73-.58-.86a.82.82,0,0,0-.16-.52,1.16,1.16,0,0,1-.21-.53A4.08,4.08,0,0,0,8,133.71a4.34,4.34,0,0,1-.46-1.18,3.47,3.47,0,0,0-.34-1,4.78,4.78,0,0,1-.39-1.33,2.28,2.28,0,0,0-.27-.92,9.28,9.28,0,0,1-.67-1.18l-.48-1,.1-1.53c.14-2.26.12-3.21-.06-3.27s-.2-.57,0-1.18A6.51,6.51,0,0,0,6,119.45a.64.64,0,0,1,.2-.43.53.53,0,0,0,.2-.29,2.11,2.11,0,0,1,.38-.61,3.22,3.22,0,0,0,.48-.81,3.91,3.91,0,0,1,.34-.73,4.24,4.24,0,0,0,.38-1,3.37,3.37,0,0,1,.4-1,1.45,1.45,0,0,0,.26-.5c0-.08.18-.28.41-.44a2.74,2.74,0,0,0,.67-.83,5.26,5.26,0,0,1,.43-.72,26.22,26.22,0,0,0,1.78-3.64,2.51,2.51,0,0,1,1-1.1,1.68,1.68,0,0,0,.68-.4c.25-.22.79-.64,1.18-.95a21.66,21.66,0,0,0,2.85-2.81,2.66,2.66,0,0,1,.87-.7,6.88,6.88,0,0,0,.66-.28,1.3,1.3,0,0,1,.69,0c.26,0,.45,0,.45,0s.3-.16.67-.21a4.11,4.11,0,0,0,2.24-1.17c.58-.48,1.2-.65,1.37-.38s-1,1.19-1.53,1.33c-.27.07-.51.2-.54.28a8.3,8.3,0,0,1-3,.68,1.07,1.07,0,0,0-.59.19.6.6,0,0,1-.3.17,2.15,2.15,0,0,0-.6.6l-.82,1a1.93,1.93,0,0,0-.36.56,6.57,6.57,0,0,1-1.9,1.69,11,11,0,0,0-2.13,1.62,10.31,10.31,0,0,0-1.23,2.67,1.08,1.08,0,0,1-.33.71,1.31,1.31,0,0,0-.33.44,5.88,5.88,0,0,1-.77.95,5.4,5.4,0,0,0-1.47,2.14,1.57,1.57,0,0,1-.33.68,1.69,1.69,0,0,0-.33.6,4.88,4.88,0,0,1-.71,1.75,3.65,3.65,0,0,0-.41.77,6.35,6.35,0,0,1-.26.68,6.52,6.52,0,0,0-.09,3c.13,1.13.12,1.41,0,1.81a4.89,4.89,0,0,0-.22,1.37,2,2,0,0,0,.46,1.64,2.94,2.94,0,0,1,.49,1.06,3.31,3.31,0,0,0,.28,1,7.32,7.32,0,0,1,.4,1.62,4.73,4.73,0,0,0,.42,1.51L9,133.94c.17.29.42.76.56,1.05q.94,2,1.29,2.5a3.86,3.86,0,0,1,.51,1c.07.2.22.36.32.36a.77.77,0,0,1,.43.3,2.44,2.44,0,0,0,.73.53c.27.13.49.28.49.33a1.61,1.61,0,0,0,.56.41A6.85,6.85,0,0,1,15.63,142a4.79,4.79,0,0,0,1.44,1.09,7.29,7.29,0,0,0,.71.16,1.12,1.12,0,0,1,.64.35,3.83,3.83,0,0,0,2.25,1.55,3.42,3.42,0,0,1,1.11.61,2.66,2.66,0,0,0,.63.45,4,4,0,0,1,.76.4,3.37,3.37,0,0,0,1.35.48,1.7,1.7,0,0,1,.86.27.44.44,0,0,0,.48.12,2.41,2.41,0,0,1,1.72.6,2,2,0,0,0,.75.37,3.87,3.87,0,0,1,1,.32c.47.21.76.27.84.18s.35,0,.77.16a4.12,4.12,0,0,0,2.09.27,7.69,7.69,0,0,1,2.15.19,2.36,2.36,0,0,0,1.63,0,7.44,7.44,0,0,0,1.19-.35,7.44,7.44,0,0,1,2.66-.11.23.23,0,0,0,.27,0,3.43,3.43,0,0,1,1,.1c.68.13.85.22.85.41a.22.22,0,0,1-.19.24.25.25,0,0,0-.23.12c0,.07-.34.07-.76,0s-.77-.07-.89,0-.31.1-.68,0-.55-.14-.85.06a3.3,3.3,0,0,1-1.47.28,5.59,5.59,0,0,0-1.38.18,2.21,2.21,0,0,1-1.61-.09Zm3.72-2a11.28,11.28,0,0,1-1.45-.33l-.89-.27c-.29-.07-.18-.28.22-.42a2.19,2.19,0,0,1,1.57.23,6.65,6.65,0,0,0,1,.35c.39.12.65.27.65.38s0,.21-1.05.05Zm1.51,0a.19.19,0,0,1,0-.21c.11-.11.48.06.48.22s-.35.17-.47,0Zm-5.7-1c-.26-.17-.06-.41.33-.41s.32.06.29.23S34.51,147.61,34.24,147.44Zm-1.66-.28-.77-.19c-.55-.11-.35-.39.31-.44s1.73.21,1.68.49S33.17,147.33,32.58,147.16Zm-3.24-.5a1.12,1.12,0,0,1-.64-.23.52.52,0,0,0-.32-.19,1.21,1.21,0,0,1-.5-.32.73.73,0,0,0-.6-.25,1.11,1.11,0,0,1-.63-.13,7.85,7.85,0,0,0-2.32-.54.84.84,0,0,1-.72-.35,3.24,3.24,0,0,0-1.46-1.21,3,3,0,0,1-1-.67,3.44,3.44,0,0,0-.77-.61c-.58,0-.85-.24-.86-.61a.15.15,0,0,0-.13-.16c-.07,0-.13-.11-.13-.24s-1.25-.95-1.69-.95c-.28,0-.85-.6-1.21-1.29a4,4,0,0,0-.67-.88,3.4,3.4,0,0,1-.91-1.53c0-.19-.64-.72-1.22-1-.2-.1-.36-.27-.36-.38s0-.16-.08-.12-.27-.14-.51-.41c-.43-.48-.44-.49-.38-1.57a3.07,3.07,0,0,0-.2-1.67c-.14-.32-.32-.59-.4-.59s-.14-.15-.14-.33a.46.46,0,0,0-.2-.41c-.17-.07-.2-.38-.18-2a11.84,11.84,0,0,0-.12-2.27c-.08-.19-.1-.38-.06-.43a3.23,3.23,0,0,0-.38-1.53c-.06,0-.08-.07-.05-.16a5.32,5.32,0,0,0,.12-.56,5.75,5.75,0,0,1,.55-2,.72.72,0,0,0,.19-.38,5.77,5.77,0,0,1,.51-1.11,5.63,5.63,0,0,0,.61-1.64,7.21,7.21,0,0,1,.76-2,6.38,6.38,0,0,0,.71-1.85c.06-.73.2-1,1.05-1.9a4.93,4.93,0,0,0,.7-.87,28.07,28.07,0,0,1,3.58-3.45l1.36-1a8.76,8.76,0,0,1,1.33-.76c1.31-.59,1.65-.78,1.72-1a5.63,5.63,0,0,1,2-1.48.88.88,0,0,0,.56-.26.85.85,0,0,1,.54-.26,11.3,11.3,0,0,0,2.82-1.38,5.55,5.55,0,0,1,2.25-.91c.07,0,.23,0,.35-.11a3.76,3.76,0,0,1,.85-.42,1.67,1.67,0,0,0,.62-.32,1.86,1.86,0,0,1,.47-.46c.52-.41,1.12-.59,1.11-.32s-.55.82-1,1a8.23,8.23,0,0,1-1.92.9,5.64,5.64,0,0,0-1.09.46,8.07,8.07,0,0,1-1,.46,2.52,2.52,0,0,0-.59.45,4.15,4.15,0,0,1-1,.67c-.29.12-.84.37-1.22.55a1.79,1.79,0,0,1-1,.26c-.24-.06-.45.05-.94.51s-.59.59-.55.59-.17.22-.47.49-.62.56-.69.63a2.21,2.21,0,0,1-1.1.58,7.2,7.2,0,0,0-3.18,1.81l-.62.5a1.1,1.1,0,0,0-.43.6,1.59,1.59,0,0,1-.46.73c-.41.42-.51.46-.92.38s-.46-.06-.46.23a1.52,1.52,0,0,1-.51.83,6.2,6.2,0,0,0-1.49,2.66,2.84,2.84,0,0,1-.38,1A1.36,1.36,0,0,0,14,116a3.52,3.52,0,0,1-.37.83,2.06,2.06,0,0,0-.32.82,1.51,1.51,0,0,1-.22.69,2.55,2.55,0,0,0-.27.77,2.94,2.94,0,0,1-.26.79c-.18.39-.33.56-.52.56s-.27,0-.28.1,0,.22-.05.36l-.18,1.18c-.08.51-.18,1.08-.23,1.28s0,.36.07.36.14.17.12.38a.94.94,0,0,0,.13.57,1.59,1.59,0,0,1,.14.78,3.93,3.93,0,0,0,.15,1.09,3.13,3.13,0,0,1,.05,1.37c-.13,1.1-.11,1.28.21,1.73a1.39,1.39,0,0,1,.26.61,2.28,2.28,0,0,0,.27.75,4.18,4.18,0,0,1,.35,1.44,2.51,2.51,0,0,0,.37,1.33,5,5,0,0,1,.47.82c.1.24.22.43.27.43a3.46,3.46,0,0,1,.66.52,3.49,3.49,0,0,0,.66.53,7.56,7.56,0,0,1,1.77,2l.74,1.12a3.93,3.93,0,0,0,1,.7,5.42,5.42,0,0,1,1.32.94,10.34,10.34,0,0,0,1.16,1c.85.65,1.2.93,1.88,1.51a6.68,6.68,0,0,0,2.5,1.28,3.39,3.39,0,0,1,1.62.63c0,.08.26.15.51.15a1.45,1.45,0,0,1,.8.26,1.21,1.21,0,0,0,.52.26,1.29,1.29,0,0,1,.48.16,1.6,1.6,0,0,0,.6.16c.17,0,.34.08.37.16s-.66.27-1.43.2Zm35.8-.7a6.6,6.6,0,0,1-1.45-.22.66.66,0,0,0-.4-.11c-.18,0-.68-.05-1.12-.1l-1.38-.16a10.43,10.43,0,0,1-2.63-.85,7.5,7.5,0,0,0-3.77.05.88.88,0,0,1-1.07-.09,1.19,1.19,0,0,0-.53-.16c-.2,0-.82-.12-1.39-.24a5.16,5.16,0,0,0-2.94,0c-.34.16-.49.18-.61.07a.72.72,0,0,0-.44-.15c-.45,0-.26-.52.19-.54a5.71,5.71,0,0,0,.74-.08,20.2,20.2,0,0,1,4.28.1,1.6,1.6,0,0,0,.89.06c1.2-.18,1.54-.22,2.19-.27l.79-.07a7,7,0,0,1,1.51.26,6.13,6.13,0,0,1,2.06.66,1.14,1.14,0,0,0,.8.21.66.66,0,0,1,.47,0,5.81,5.81,0,0,0,2.54.57,8.36,8.36,0,0,0,2.92-.28.24.24,0,0,1,.22-.13c.3,0,.36-.27.12-.53s-.26-.23-.31-.2a2.24,2.24,0,0,1-.74-.4,2.78,2.78,0,0,0-.89-.45,3.68,3.68,0,0,1-1-.4,3,3,0,0,0-1.24-.39,3.91,3.91,0,0,1-1.25-.33,4.68,4.68,0,0,0-.91-.33,1.19,1.19,0,0,1-.49-.26,4.18,4.18,0,0,0-1.29-.46,4.13,4.13,0,0,1-1.1-.33.69.69,0,0,0-.42-.13.66.66,0,0,1-.45-.2.59.59,0,0,0-.39-.2,4.85,4.85,0,0,1-1-.25,5.65,5.65,0,0,0-1.47-.26,3.18,3.18,0,0,1-.88-.09,8.85,8.85,0,0,0-2.29-.26c-.58,0-1.35-.09-1.71-.13a10.23,10.23,0,0,0-2-.08,25.83,25.83,0,0,1-6.25-.51,12.48,12.48,0,0,0-2.81-.53,4.43,4.43,0,0,1-1.2-.26A4.31,4.31,0,0,0,36,137.3a.61.61,0,0,1-.44-.14A8.33,8.33,0,0,0,32.68,136a1,1,0,0,1-.56-.26.92.92,0,0,0-.53-.26,1.36,1.36,0,0,1-.54-.14,7.28,7.28,0,0,1-1.75-1.81.4.4,0,0,0-.34-.28c-.14,0-.41-.22-.62-.49a4.24,4.24,0,0,0-.5-.59,8.08,8.08,0,0,1-.49-2c0-.09-.06-.16-.11-.16a1.8,1.8,0,0,1-.24-.73,3.1,3.1,0,0,0-.54-1.23c-.38-.47-.39-.53-.33-1.59a2.59,2.59,0,0,0-.1-1.28c-.12-.15-.12-.21,0-.3s.19-.5.21-1.4a6.15,6.15,0,0,1,.24-1.78,2.66,2.66,0,0,0,.21-.68,12,12,0,0,1,1.38-2.82,1.35,1.35,0,0,0,.32-.51c-.06-.36.09-.66.77-1.46a13.64,13.64,0,0,0,.9-1.15,1.14,1.14,0,0,1,.4-.39,7.25,7.25,0,0,0,2-2,10,10,0,0,1,1.41-1.5c.26-.17.47-.36.47-.42a4.38,4.38,0,0,1,1.06-.64,11.84,11.84,0,0,0,1.4-.8,1.27,1.27,0,0,1,.49-.27c.08,0,.29-.18.47-.39s.39-.39.47-.39.68-.6,1.26-1.49a5.79,5.79,0,0,1,1.76-1.8c.1,0,.37-.32.61-.71a2.88,2.88,0,0,1,.76-.89c.43-.22.59-.41,1.06-1.29l.5-.92a11.3,11.3,0,0,0,.68-1.48,15.71,15.71,0,0,1,1.19-1.91c.2-.23.66-.21.66,0a1.38,1.38,0,0,1-.24.56,9.81,9.81,0,0,0-1.18,2.07,8.9,8.9,0,0,1-2.17,3.46L42,104.94l-.46.45c-.17.16-.51.53-.77.83-2.44,2.86-2.44,2.86-4.11,3.73a2,2,0,0,0-.62.41s-.21.16-.46.24a2.27,2.27,0,0,0-.88.69,12.7,12.7,0,0,1-1.06,1.13,2.43,2.43,0,0,0-.63.77c0,.1-.05.18-.11.18s-.28.24-.48.52a2.6,2.6,0,0,1-.87.76,1.26,1.26,0,0,0-.58.46,2,2,0,0,1-.51.59,2.24,2.24,0,0,0-.6.86,1.52,1.52,0,0,1-.47.7c-.17.11-.28.27-.25.36a2.77,2.77,0,0,1-.53,1c-.6.86-.78,1.43-1.25,4l-.19,1.05c0,.14-.12.51-.2.82a6.46,6.46,0,0,0,.71,4.2,6.48,6.48,0,0,1,.55,1.45,5.4,5.4,0,0,0,.91,2.1,1.77,1.77,0,0,1,.32.55c0,.07.16.19.36.27.41.16,1.08.73,1.08.92a1.51,1.51,0,0,0,.32.51c.33.39.64.55,2.31,1.15.54.19,1.22.47,1.51.61a2.69,2.69,0,0,0,.95.25,4.24,4.24,0,0,1,1.12.25,10,10,0,0,0,1.16.34,2.13,2.13,0,0,1,.59.19,6.38,6.38,0,0,0,1.86.35.93.93,0,0,1,.48.06,11,11,0,0,0,2.19.32,3.49,3.49,0,0,1,.59.06,5.17,5.17,0,0,0,.72.08,5.39,5.39,0,0,1,.89.12,3.26,3.26,0,0,0,1-.12,9.75,9.75,0,0,1,2.13-.14,29.79,29.79,0,0,1,4.86.36,3.56,3.56,0,0,0,.66.24,12.6,12.6,0,0,1,1.71.6,6.15,6.15,0,0,0,1.48.23,3.92,3.92,0,0,1,1.27.21,8,8,0,0,0,1.32.54,8.36,8.36,0,0,1,1.5.65,13,13,0,0,0,3.17.92.73.73,0,0,1,.44.2.66.66,0,0,0,.32.2.56.56,0,0,1,.3.21,1.46,1.46,0,0,0,.44.33c.15.07.56.3.93.52s1,.57,1.47.79c.85.4,1.09.67,1.09,1.22s-.22.58-1.51.65a13.79,13.79,0,0,0-1.45.13,10,10,0,0,1-1.64-.06ZM33,144a3.2,3.2,0,0,0-1.33-.46l-.54-.06a2.37,2.37,0,0,1-.44-.61c-.26-.44-.43-.59-.66-.59a2.41,2.41,0,0,1-1.62-.8,2.1,2.1,0,0,0-.74-.58c-.3-.13-.46-.28-.46-.45a2.77,2.77,0,0,0-.84-1,6.66,6.66,0,0,1-1-1.06A.87.87,0,0,0,25,138a3.61,3.61,0,0,1-.8-.64,15,15,0,0,0-1.33-1.12c-.42-.31-.76-.64-.76-.74s-.18-.28-.39-.39a1.44,1.44,0,0,1-.53-.46,1.33,1.33,0,0,1,.06-1.28c.38-.38.24-.88-.39-1.45s-.75-1-.31-1.27c.68-.48,1.42.52,1.69,2.29a3.68,3.68,0,0,0,.4,1.38,9,9,0,0,1,.58.8,3.18,3.18,0,0,0,.9.85,12.44,12.44,0,0,1,2.82,2.88A5.81,5.81,0,0,0,29,141a3.79,3.79,0,0,0,.83.36,3.34,3.34,0,0,1,.82.46,4.69,4.69,0,0,0,.76.46,2.7,2.7,0,0,1,.57.44,2.09,2.09,0,0,0,1,.53c.61.1.74.23.62.61s-.27.32-.59.14ZM64,139.12a1.53,1.53,0,0,0-.79-.19c-.34,0-1-.06-1.44-.12-.68-.08-.87-.06-1.07.12s-.4.21-1.15.13a3.91,3.91,0,0,1-1.18-.26,4.37,4.37,0,0,0-1.18-.3c-2-.27-2.55-.91-1-1.12a1.78,1.78,0,0,1,1.31.15,5.19,5.19,0,0,0,3,.49,14.46,14.46,0,0,1,2.1.06,13.51,13.51,0,0,0,1.57.15c1.17,0,1.48-.15.64-.42a6.76,6.76,0,0,1-1.07-.49,15.38,15.38,0,0,0-3.49-1.16,4,4,0,0,1-1.51-.63,1.82,1.82,0,0,0-1.06-.41,3.88,3.88,0,0,1-1-.23,17.7,17.7,0,0,0-3.75-.06c-.12.08-.68-.28-.68-.43s.62-.41,1-.41a1.88,1.88,0,0,1,.65.15c.25.12.38.11.53,0s.37-.13.76-.06a5.87,5.87,0,0,0,1.11.07,6,6,0,0,1,3.6,1,1.71,1.71,0,0,0,.74.31,1.85,1.85,0,0,1,.72.26,1.51,1.51,0,0,0,.74.22,3.2,3.2,0,0,1,.92.19,7.94,7.94,0,0,0,.87.27,1.52,1.52,0,0,1,.66.39,4,4,0,0,0,2.19.79c.32-.1.78.36.78.79s-.73.74-1.77.72a6.65,6.65,0,0,0-1.19.07.61.61,0,0,1-.57-.09Zm-19-4.9a4.82,4.82,0,0,0-1.13-.18,2.66,2.66,0,0,1-1-.27c-1.3-.66.3-1,1.66-.33.71.33.77.34,1.92.21a18.27,18.27,0,0,1,2-.11,1.67,1.67,0,0,0,1.14-.21,1.48,1.48,0,0,1,.78-.23,2.66,2.66,0,0,0,.9-.18c1-.42,1.6-.49,4.36-.43a23.38,23.38,0,0,1,5.88.57c.53.26,1,.22,1.22-.11a1.07,1.07,0,0,0,.2-.43A12.65,12.65,0,0,0,59.8,131a1,1,0,0,1-.53-.2c-.25-.19-.25-.2,0-.4a.65.65,0,0,1,.53-.12,7.58,7.58,0,0,0,.79.16,3.32,3.32,0,0,1,1.05.41,8.28,8.28,0,0,0,2.43,1.3c.33.08.75.21,1,.29.82.31.09,1.27-.89,1.16a1.84,1.84,0,0,0-.92.14,2.25,2.25,0,0,1-1.32.1c-.51-.05-1.08-.09-1.26-.09a7.43,7.43,0,0,1-1.28-.25,7.85,7.85,0,0,0-1.26-.25.73.73,0,0,1-.4-.09,18.83,18.83,0,0,0-2.55-.12,11,11,0,0,0-3.05.17,3.92,3.92,0,0,0-1.72.89c-.17.21-.35.27-.79.25a23.58,23.58,0,0,0-2.81,0,5.73,5.73,0,0,1-1.83-.12Zm-4.85-.81c-.14-.14,0-.31.31-.31a.23.23,0,0,1,.26.2C40.67,133.48,40.27,133.56,40.1,133.4Zm-.94-.26a1.66,1.66,0,0,0-.59-.19,9,9,0,0,1-2.76-2.24c0-.07-.08-.13-.19-.13s-.37-.33-.58-.73a4,4,0,0,1-.49-1.76,2.06,2.06,0,0,0-.65-1.67,7.06,7.06,0,0,1-.78-1.08,3.93,3.93,0,0,1-.32-2.34,8.34,8.34,0,0,0,.25-1.56,6.42,6.42,0,0,1,.85-3.07,2.88,2.88,0,0,0,.38-.75,5.61,5.61,0,0,1,1.5-2.12.57.57,0,0,1,.37,0c.1.1-.36,1-.67,1.36a4,4,0,0,0-.85,1.78,1.23,1.23,0,0,1-.2.6,4.48,4.48,0,0,0-.28,1.64,12.55,12.55,0,0,1-.26,2c-.24.85-.08,1.55.69,3a4.49,4.49,0,0,1,.65,1.78c.14,1.77.15,1.79,1,2.64.45.44,1,.91,1.14,1l.95.7a6.65,6.65,0,0,0,1.08.65c.47.2.6.5.28.62a.87.87,0,0,1-.54-.12Zm17.17-2.66a9.21,9.21,0,0,0-1.83-.23,7.31,7.31,0,0,1-1.6-.19,4.47,4.47,0,0,0-1.27-.13,14.17,14.17,0,0,1-1.86-.14c-.72-.12-2.16-.27-2.58-.27l-.66.08a1.09,1.09,0,0,1-1.25-.69c0-.16.09-.18.49-.11a15.13,15.13,0,0,0,1.71.14,6.75,6.75,0,0,1,1.36.13,34.18,34.18,0,0,0,5.77.36,6.66,6.66,0,0,1,1.4.13,2.61,2.61,0,0,0,.71.16,3,3,0,0,1,.79.2,1.6,1.6,0,0,0,.63.13c.46,0,.79.31.52.48A5.2,5.2,0,0,1,56.33,130.49ZM20,130c-.19-.21-.21-.4-.12-1.22s.06-1-.14-1.4c-.34-.58-.36-1.85,0-2.08s.7-.11.87.86a3.91,3.91,0,0,1,.08,1.17.76.76,0,0,0,0,.51,4.88,4.88,0,0,1,.17,1.29c0,1,0,1-.3,1.08A.68.68,0,0,1,20,130Zm24-1.26a1.11,1.11,0,0,1-.29-.43c0-.18-.51-.59-.7-.57-.34,0-.47,0-.55-.27s-.16-.23-.25-.19c-.33.13-1.12-.66-1.52-1.53a9.66,9.66,0,0,1-.4-.94,4.1,4.1,0,0,0-.22-.58,2,2,0,0,1-.19-.62,5.16,5.16,0,0,0-.24-1c-.29-.93-.34-1.49-.14-1.49s.92,1.31.92,1.86a1.12,1.12,0,0,0,.33.54,2.8,2.8,0,0,1,.53,1.1,3.75,3.75,0,0,0,.36,1,3.48,3.48,0,0,1,.33.53,5.28,5.28,0,0,0,1.72,1.32,8.77,8.77,0,0,1,1.46,1.5s-.2.07-.44.07A1,1,0,0,1,44,128.71Zm11.55-1.22a6.42,6.42,0,0,0-1-.24,19.08,19.08,0,0,1-2.63-.58,21.91,21.91,0,0,0-4.08-.14c-.78.05-2.7-1.08-2.7-1.59a.57.57,0,0,0-.19-.38,1.15,1.15,0,0,1-.27-.54c0-.21-.16-.39-.25-.39s-1-.79-1.08-1.18a8.34,8.34,0,0,1-.25-2.17c-.1-1.7-.13-2-.24-2.12a.59.59,0,0,1-.1-.35c0-.23-.28-.63-.45-.63s-.08.11-.08.24a1,1,0,0,1-.26.52,1.07,1.07,0,0,0-.26.39,3.86,3.86,0,0,1-.46.75,2.65,2.65,0,0,0-.46.88c0,.26-.71.91-1,.91s-.23-.06,0-.88a2.28,2.28,0,0,1,.41-.84,5,5,0,0,0,.89-1.7c-.05,0,.11-.21.36-.47s.54-.45.75-.41.33,0,.37-.05-.2-.66-.37-.56-.12,0-.06-.34a4.49,4.49,0,0,0,.09-.68.76.76,0,0,1,.26-.47.77.77,0,0,0,.26-.49A2.41,2.41,0,0,1,44,112.42a8.78,8.78,0,0,0,2.55-2.31,3.64,3.64,0,0,1,.51-.71,2.73,2.73,0,0,0,.45-.75A1.33,1.33,0,0,1,48,108a8.24,8.24,0,0,0,1.82-3,.9.9,0,0,1,.2-.53,9.91,9.91,0,0,0,1.24-2.85,6.27,6.27,0,0,1-.08-2c.08-.29.18-.38.42-.38s.32.05.3.46c-.12,2.74-.4,3.71-1.46,5a1.47,1.47,0,0,0-.3,1c0,.61-.06.73-.78,1.6-.43.52-.89,1.06-1,1.21a8.48,8.48,0,0,0-.76,1.18,6.82,6.82,0,0,1-2.43,2.7,4.89,4.89,0,0,0-1.73,1.73,1.06,1.06,0,0,0,.06.95,1.6,1.6,0,0,1,0,1.32,3.77,3.77,0,0,0,.25,2.51A7.29,7.29,0,0,1,44,120.7a3.34,3.34,0,0,0,.83,2.57,5.4,5.4,0,0,1,.68,1,4.1,4.1,0,0,0,.9,1,1.3,1.3,0,0,0,1.44.42,15.19,15.19,0,0,1,3.79.26l1.22.33a7.81,7.81,0,0,0,1.75.19c1,0,1,0,.84-.25a3.21,3.21,0,0,0-.76-.51A8.89,8.89,0,0,1,53.6,125a1.58,1.58,0,0,0-1.12-.4,4.53,4.53,0,0,1-2.09-.59,1.7,1.7,0,0,0-.85-.15c-1.29,0-1.61,0-2-.38a.7.7,0,0,1-.28-.68,2.15,2.15,0,0,0-.27-1.06,2.77,2.77,0,0,1-.07-2.61,1.5,1.5,0,0,0,.3-.68,1.34,1.34,0,0,1,.14-.53,4,4,0,0,0,.19-1.11c.06-.89.31-1.56.64-1.69.16-.06.18.17.15,1.48s-.07,1.6-.38,2.06a1.94,1.94,0,0,0-.34.79.49.49,0,0,1-.13.37c-.22.14-.16,1.27.09,1.54a1.09,1.09,0,0,1,.2.7c0,.64.6,1.12,1.47,1.12a3.35,3.35,0,0,1,1.11.21,6.66,6.66,0,0,0,1.41.33c1.19.15,1.28.17,1.51.32s.67.35,1.24.63a6.6,6.6,0,0,1,2.71,2.22c.15.37.14.43-.07.59a1.94,1.94,0,0,1-1.64,0Zm-36.16-3a2.53,2.53,0,0,1,.08-1.78,1.22,1.22,0,0,0,.14-.61,1.57,1.57,0,0,1,.11-.68,5.21,5.21,0,0,0,.19-1.25c0-.75.18-1.14.52-1.14s.26.15.35,1.08c.12,1.26.1,1.51-.15,1.9a1.35,1.35,0,0,0-.19.62,2.26,2.26,0,0,1-.15.7,2.71,2.71,0,0,0-.16.75.73.73,0,0,1-.31.57c-.28.18-.3.17-.43-.16Zm88.51.19c-.45-.11-.8-.42-.8-.74,0-.09-.13-.24-.3-.32a10.59,10.59,0,0,1-1-.73c-.81-.64-1.1-.7-1.31-.3-.08.15-.21.25-.3.22s-.26.08-.38.24a1.94,1.94,0,0,1-.86.46,2.84,2.84,0,0,0-1,.46,1.86,1.86,0,0,1-1.36.59c-.39,0-.49-.07-.67-.45s-.5-.66-.7-.46-.25.08-.45,0a5.46,5.46,0,0,0-1-.2c-.63-.07-.77-.15-1.47-.83a4.44,4.44,0,0,1-.77-.89A2.6,2.6,0,0,0,95,121a5,5,0,0,1-.75-1.12,2.08,2.08,0,0,0-.42-.68,4.71,4.71,0,0,1-.87-1.83,3.75,3.75,0,0,1,.07-1.16,4.25,4.25,0,0,0,.08-2.14,1.6,1.6,0,0,1,0-1,9.49,9.49,0,0,0,.12-2.72,2.91,2.91,0,0,1,0-.86c.14-.5,0-1.18-.22-1.09s-.24.44,0,.44,0,.09-.1.2a.72.72,0,0,1-.59.12,1.52,1.52,0,0,1-.92-1c0-.27.4-.44.53-.22s.17.13.45,0a1,1,0,0,1,.6-.08.8.8,0,0,0,.53-.08c.4-.22.49,0,.44,1a7.51,7.51,0,0,0,.2,1.86,10,10,0,0,1,.21,2.7,10.91,10.91,0,0,1-.13,1.87,4.36,4.36,0,0,0-.22.92,4.79,4.79,0,0,0,.59,3.06,6.71,6.71,0,0,1,.67,1,8,8,0,0,0,1,1.32c.64.65.71.69,1.89.92a3.16,3.16,0,0,1,1.38.47,1,1,0,0,0,.47.3,4.59,4.59,0,0,0,2.24-.44,2.16,2.16,0,0,1,.74-.26,1.48,1.48,0,0,0,.71-.52c.24-.28.52-.48.61-.45s.14-.07.06-.5c-.19-1-.52-1.5-.94-1.44,0,0-.21-.18-.35-.41a3.69,3.69,0,0,0-.58-.71,1.55,1.55,0,0,1-.38-.45c0-.09-.29-.18-.57-.19a1.47,1.47,0,0,0-1.63,1.16c-.17.52-.51.79-.78.63s-.13-.25,0-.68a3.1,3.1,0,0,1,1.66-1.76c.87-.42,1.87.21,2.94,1.83a7.39,7.39,0,0,0,.84,1,1.37,1.37,0,0,1,.49.81c0,.33.3.75.54.75a7.3,7.3,0,0,1,1.69,1.35,1.3,1.3,0,0,0,.92.49,2.05,2.05,0,0,1,.79.2c.35.18.39.18.46-.06a3.26,3.26,0,0,1,1.26-1.09,3.17,3.17,0,0,0,.72-.84c.7-1.05.67-1.64-.13-2.45a5.27,5.27,0,0,1-.79-1,1.35,1.35,0,0,0-.61-.58c-.21-.08-.38-.19-.38-.25a.12.12,0,0,0-.13-.1.82.82,0,0,1-.37-.23,3.06,3.06,0,0,0-.47-.36c-.3-.18-.14-.59.24-.59a1.21,1.21,0,0,1,.58.2c.16.11.29.17.29.13s.14,0,.32.13a6.31,6.31,0,0,1,1.38,1.84,9.12,9.12,0,0,0,.81,1.05,3.09,3.09,0,0,1,.79,2,2.17,2.17,0,0,1-1.22,1.41,3,3,0,0,0-1.15.81,1.46,1.46,0,0,1-.69.38c-.54,0-.59,0-.84.34a1.08,1.08,0,0,1-1.23.3Zm5.75-3.9c-.27-.11-.49-.24-.49-.29,0-.31.33-.48,1-.54l.75-.07.38-.95.38-.95-.26-.43a3.26,3.26,0,0,1-.35-1c-.1-.72-.24-.9-.85-1.18a2.87,2.87,0,0,1-1.26-1,1.2,1.2,0,0,0-.43-.4,3.34,3.34,0,0,1-.62-.46l-.33-.31-.38.41a2.67,2.67,0,0,0-.53.95c-.17.63-.4.69-.73.19-.2-.31-.21-.43-.07-1q.34-1.25,0-1.53a.5.5,0,0,1-.22-.31c0-.08-.16-.15-.36-.15a2,2,0,0,1-.75-.2c-.37-.19-.41-.18-.92.18a3,3,0,0,0-.81.95c-.34.69-.82,1-1.17.74s-.17-.61.84-1.68c.82-.87.93-1,1.41-.94a4,4,0,0,1,1.62.3c.16.09.27.09.3,0,.09-.27.84.09,1.12.53.6.93.7,1,1.42,1.25a2.51,2.51,0,0,1,1.09.63,15.7,15.7,0,0,0,2.33,2.19,2,2,0,0,1,.74,1.06l.35.84-.27.66a7,7,0,0,0-.36,1.22,2.74,2.74,0,0,1-.45,1,.89.89,0,0,1-1,.46,3.58,3.58,0,0,1-1.11-.21Zm-92.74-2.18c-.21-.69-.18-.84.28-1.51a2.89,2.89,0,0,1,.57-.69,5.41,5.41,0,0,0,.79-1c.38-.52.87-1.16,1.08-1.41a4.9,4.9,0,0,0,.62-1,7.82,7.82,0,0,1,2.38-2.49,2.1,2.1,0,0,0,.79-.54,1.87,1.87,0,0,1,.56-.46,2.59,2.59,0,0,0,.66-.47,16.93,16.93,0,0,1,2.77-2,2.83,2.83,0,0,0,.81-.59,3.72,3.72,0,0,1,.84-.65,3.05,3.05,0,0,0,.71-.52,3.83,3.83,0,0,1,1-.61,6.26,6.26,0,0,0,1.22-.76c.27-.23.8-.66,1.17-.94s.86-.68,1.09-.89c.46-.41.48-.42.75-.24s0,.35-.9,1.18a9,9,0,0,1-1.21,1.06.11.11,0,0,0-.11.1,3,3,0,0,1-.89.49,9.39,9.39,0,0,0-2,1.32,23.08,23.08,0,0,1-2.22,1.62,15.84,15.84,0,0,0-1.9,1.4,4.9,4.9,0,0,1-.92.72,2.68,2.68,0,0,0-.67.44,4.25,4.25,0,0,1-.78.52.77.77,0,0,0-.36.41c-.07.18-.22.33-.33.33a.19.19,0,0,0-.2.17,2.06,2.06,0,0,1-.54.69,4.24,4.24,0,0,0-.8,1.11c-.26.59-.41.77-1.93,2.3a4.63,4.63,0,0,0-1.28,1.86,3.26,3.26,0,0,1-.88,1.09c-.06,0-.13-.07-.15-.16Zm15.87-3.74a.27.27,0,0,1-.16-.22,4,4,0,0,1,1.32-1.34.65.65,0,0,0,.33-.46A1.85,1.85,0,0,1,39,112a4.78,4.78,0,0,0,.86-.81,1.31,1.31,0,0,1,.57-.44.72.72,0,0,0,.44-.38,1.26,1.26,0,0,1,.53-.52,2.73,2.73,0,0,0,1-1.29A4.84,4.84,0,0,1,43,107.4a5.88,5.88,0,0,0,1.94-2.31.51.51,0,0,1,.86-.3l.29.23-.56.84a4,4,0,0,1-1,1A5.1,5.1,0,0,0,42.76,109a3.76,3.76,0,0,1-1.59,1.78c-.2.11-.36.27-.36.37s-.27.34-.59.54a4.28,4.28,0,0,0-.95.85A13.68,13.68,0,0,1,37,114.93l-.23-.08Zm29.1-.18a8.15,8.15,0,0,1-1.18-.43c-.22-.11-.67-.33-1-.47a4.57,4.57,0,0,1-1.19-.85,2.46,2.46,0,0,0-1.94-.82,10.22,10.22,0,0,1-1.25-.18c-.43-.09-1-.18-1.25-.21s-1-.15-1.71-.27a11.93,11.93,0,0,0-1.45-.2,5.16,5.16,0,0,1-2-.19,4.82,4.82,0,0,0-1.2-.2c-.68,0-.89-.28-.49-.68a9.82,9.82,0,0,0,1.28-1.65,5.06,5.06,0,0,0,.29-1.12,9,9,0,0,1,.45-1.6c.18-.45.26-.81.19-.83s0-.27.27-.55.35-.54.26-.59A3,3,0,0,1,54,102a4.79,4.79,0,0,0,.18-1.35c0-1.12.2-1.64.53-1.64s.4.17-.21,4.34a5.32,5.32,0,0,0-.05,1.24c.07.41,0,.71-.69,2.11a5.17,5.17,0,0,0-.44,1.16A4.65,4.65,0,0,1,52.9,109a5.31,5.31,0,0,0-.39,1c0,.22,1.15.52,2.24.57a40.22,40.22,0,0,1,4.21.33l1.51.25a6.08,6.08,0,0,1,1.15.32,2.58,2.58,0,0,0,.76.21,1.77,1.77,0,0,1,.78.46,2.69,2.69,0,0,0,.61.46c.05,0,.2.13.33.3a2.36,2.36,0,0,0,.68.51c1.24.61,1.69.77,2,.71a1.38,1.38,0,0,1,.7.1c.36.16.45.14,1-.2a9,9,0,0,1,1.87-.69,7.36,7.36,0,0,0,1.53-.52,1.22,1.22,0,0,1,.57-.21,1.91,1.91,0,0,0,.64-.16c.34-.15.36-.2.28-.76a2.68,2.68,0,0,0-.15-.65,14.15,14.15,0,0,0-1.8-.09l-1.83,0c-.26,0-.07-.63.26-.82a3.73,3.73,0,0,1,2.4-.18l.72.38a5.39,5.39,0,0,1,1.55,1.46A.76.76,0,0,0,75,112a.93.93,0,0,1,.49.25,4.71,4.71,0,0,0,.73.51c.39.22.46.32.44.69a1.39,1.39,0,0,1-.75,1.16c-.29.06-1.14-.47-1.14-.71a.73.73,0,0,1,.26-.41c.34-.3.33-.38-.07-.49a2.37,2.37,0,0,0-1.81.58,2.32,2.32,0,0,1-.82.47,8,8,0,0,0-.85.26,2.1,2.1,0,0,1-.87.11,2.57,2.57,0,0,0-.92.09c-1,.3-1.42.38-1.56.29a2.93,2.93,0,0,0-1.39,0,2.2,2.2,0,0,1-.85-.15Zm-17.21-.35c-.18-.18-.07-.55.27-.89a3,3,0,0,0,.57-1c.23-.69.45-.84.56-.4a1.54,1.54,0,0,1-.32,1.49C49.27,114.24,48.86,114.54,48.65,114.33Zm29-.57c-.18-.41-.36-.64-.47-.6s-.35-.17-.16-.4.31-.19.73-.13a1.33,1.33,0,0,0,1.49-.65c.36-.58.33-.93-.1-1.21a7.78,7.78,0,0,1-1-.82,4.44,4.44,0,0,0-1.76-1.19,1,1,0,0,0-.47.33,1,1,0,0,1-.48.33c-.22,0-.36-.56-.26-1,.06-.23.22-.36.57-.46.72-.2.83-.18,1.58.3a7,7,0,0,0,1.4.67c.79.25,1.39.75,1.39,1.18s.34.79,1.23.84a1.78,1.78,0,0,0,1.22-.19c.78-.5.76-.8-.07-1.65a2.1,2.1,0,0,1-.73-1.2,1.55,1.55,0,0,0-1.94-1.46l-1.61.14a3.51,3.51,0,0,0-1.22.27c-.22.15-.35.16-.46.06s0-.56.29-.65c.14,0,.26-.11.26-.16a13.35,13.35,0,0,1,3.43-.35c.42.08,1.56,1,1.56,1.31a4.92,4.92,0,0,0,.93,1.4,2.5,2.5,0,0,1,.51.71,2.17,2.17,0,0,1,.38,1.39c0,.84-.34,1.12-1,.93a.93.93,0,0,0-.88.15,1,1,0,0,1-1,.14c-.5-.13-.53-.12-.79.3a2,2,0,0,0-.26.56,6.88,6.88,0,0,1-1.86,1.75c-.14,0-.33-.25-.52-.66ZM27,112.31c-.15-.09-.16-.16,0-.28s.61-.05.54.17S27.23,112.46,27,112.31Zm77.54-.38a1.36,1.36,0,0,1-.27-.62,4.19,4.19,0,0,0-.28-.91,20.15,20.15,0,0,1,0-6.51,8.44,8.44,0,0,0,.23-1.35,2.59,2.59,0,0,1,.2-.93,2,2,0,0,0,.21-.74,2.2,2.2,0,0,1,.18-.72,4.94,4.94,0,0,0,.34-.87c.13-.4.4-1.13.61-1.63a7.12,7.12,0,0,0,.38-1,1,1,0,0,1,.24-.41,2.82,2.82,0,0,0,.42-.86,12.39,12.39,0,0,1,.68-1.58,6.13,6.13,0,0,0,.5-1.18,1.53,1.53,0,0,1,.17-.52c.33-.62.45-1.13.34-1.34a2,2,0,0,1,.09-1,3,3,0,0,0,.14-1c0-.1-.35-.21-.7-.26l-1.2-.15a8.91,8.91,0,0,1-2.58-.92,1.72,1.72,0,0,0-.8-.22.88.88,0,0,1-.54-.12.41.41,0,0,0-.31-.12.6.6,0,0,1-.4-.2.68.68,0,0,0-.46-.2,2.63,2.63,0,0,1-1-.46,3.6,3.6,0,0,0-.8-.46c-.07,0-.19-.11-.26-.25a1.12,1.12,0,0,0-.55-.39c-.4-.14-.91-.6-.91-.82,0-.06-.08-.11-.18-.11s-.35.49-.22,1.06a14.94,14.94,0,0,1-.11,2.83l-.35.39c-.7.79-.9,1.51-1,3.74A6,6,0,0,1,96,94a3.74,3.74,0,0,0-.28,1.58,2.57,2.57,0,0,1-.37,1.6,6.08,6.08,0,0,1-.53.79,6.74,6.74,0,0,0-.49.63c-.36.52-.52.65-.77.66s-.06-.74.43-1.51A5.78,5.78,0,0,0,95,95.22a10.59,10.59,0,0,1,.35-1.64,6.21,6.21,0,0,0,.26-2,4.88,4.88,0,0,1,.51-2.5,8.77,8.77,0,0,0,.68-2.56A11.47,11.47,0,0,1,97,85.19c.12-.79.11-.92-.1-1.15a.79.79,0,0,0-.45-.27,3.62,3.62,0,0,1-.93-.41A2.93,2.93,0,0,0,94,82.93a2.28,2.28,0,0,1-1-.19.68.68,0,0,0-.42-.16,1.14,1.14,0,0,1-.6-.33,1.48,1.48,0,0,0-.6-.37,1.36,1.36,0,0,1-.43-.14c-.3-.19-.65,0-.89.57-.13.29-.28.52-.34.52a9.16,9.16,0,0,0-1.15,1c-1,.92-1.34,1.15-1.34.87a6,6,0,0,1,1.2-1.46A2.8,2.8,0,0,0,89.07,82a1.25,1.25,0,0,1,.41-.53c.37-.33.39-.38.21-.59-.35-.4-.35-.94,0-2a7.29,7.29,0,0,1,.44-1.14,3.9,3.9,0,0,0,.24-1q.2-1.39.82-1.39c.29,0,.45.28.57,1,.08.46.05.6-.14.74a2.21,2.21,0,0,0-.47.62,7.08,7.08,0,0,0-.9,2,3.39,3.39,0,0,0,.83,1.64,1.26,1.26,0,0,1,.48.26,1.32,1.32,0,0,0,.67.26.74.74,0,0,1,.49.18,3.31,3.31,0,0,0,1.5.25,10.49,10.49,0,0,1,2,.29,7.34,7.34,0,0,0,1.2.27A3.51,3.51,0,0,1,99.78,84a4.15,4.15,0,0,0,1.32.92,9.55,9.55,0,0,1,1.25.66,2.5,2.5,0,0,0,.92.37,8.49,8.49,0,0,1,1.77.73,7.1,7.1,0,0,0,1.63.67,3.38,3.38,0,0,1,1,.33,3.56,3.56,0,0,0,1.46.34,12.84,12.84,0,0,1,1.69.19,10.26,10.26,0,0,0,1.51.17,1.77,1.77,0,0,1,1.74.71c.27.31.75.83,1.08,1.15A4.29,4.29,0,0,1,116.29,92a1.63,1.63,0,0,0,.18.5c.33.64.14,1.55-.57,2.68-.52.83-.62,1.09-.57,1.44s0,.43-.21.43c-.58,0-.52-1.15.13-2.37s.68-1.5.3-2.28c-.72-1.47-.83-1.64-1.15-1.72a1.85,1.85,0,0,1-.7-.52c-.21-.24-.45-.41-.53-.39a1.25,1.25,0,0,1-.58-.14,6.91,6.91,0,0,0-1.75-.56,2.07,2.07,0,0,1-.69-.22c-.51-.41-.82.5-1.15,3.45a10.94,10.94,0,0,1-1.46,3.21,3.16,3.16,0,0,0-.58,1.05,4.13,4.13,0,0,1-.78,1.59,1.09,1.09,0,0,0-.23.54,3.4,3.4,0,0,1-.3.89,3.74,3.74,0,0,0-.32,1,2.5,2.5,0,0,1-.11.56,9.23,9.23,0,0,0-.52,2.67,1.31,1.31,0,0,1-.15.59,6.14,6.14,0,0,0-.14,2.26c.08,3.5.11,3.75.67,4.77.16.29.17.41,0,.56s-.3.24-.57-.05ZM90,109.85c-.12-.2-.15-.2-.27,0s-.15.16-.19-.29c0-.11.22-.16.74-.16s.76,0,.76.11.12.07.27,0,.26-.08,0,.19-.41.35-.46.07-.09-.16-.33.07-.38.33-.56,0Zm.39-1.34c-.36-.27-.25-.37.39-.35s.63.32.19.48A.59.59,0,0,1,90.39,108.5Zm34.67-1.05c-.82-.71-1.46-.93-2-.67-.32.15-.55,0-.56-.26a1.73,1.73,0,0,1,.72-.64.77.77,0,0,0,.33-.18,1.7,1.7,0,0,1,.41-.25,1.27,1.27,0,0,0,.43-.55,2,2,0,0,1,.5-.66,1.85,1.85,0,0,0,.77-1.41,1.31,1.31,0,0,1,.26-.79c.26-.3.27-.31.46-.06a1.42,1.42,0,0,1,.2.73c0,.39-.12.6-.65,1.18-.36.38-.62.75-.59.81s-.17.27-.46.47-.53.46-.53.58c0,.5,1.38,1.43,2.14,1.43a6.06,6.06,0,0,0,2.43-1.3,2.34,2.34,0,0,0,.88-2.06,4,4,0,0,0-.17-.91c-.45-1-.46-1.38,0-1.38s.58.59.82,2.24c.2,1.4.18,1.58-.24,2a5.4,5.4,0,0,1-1.62,1.07,1.43,1.43,0,0,0-.56.33,1.45,1.45,0,0,1-.55.33,1.78,1.78,0,0,0-.61.33,1.65,1.65,0,0,1-.73.33,2.81,2.81,0,0,1-1-.65Zm-30.72.15a.73.73,0,0,1-.45-.48,3.84,3.84,0,0,0-.15-.43,3.35,3.35,0,0,0-.7.12,1.46,1.46,0,0,1-1.38-.2c-1.08-.55-1.33-.89-1.73-2.33-.15-.57-.14-.65.18-1.32s.41-.72.73-.75.38,0,.27.46c-.34,1.56.07,2.64,1.12,3a9.61,9.61,0,0,0,1,.27,2.55,2.55,0,0,1,.91.43,2.13,2.13,0,0,0,1.06.41c.56.05.66,0,1.29-.5s1.15-1.32.89-1.4a1.9,1.9,0,0,1-.12-.91c0-.88-.12-1.11-.64-1.11-.19,0-.57.85-.64,1.45a.37.37,0,0,1-.33.37c-.24,0-.3,0-.38-.43a1.27,1.27,0,0,1,.66-1.52,1.56,1.56,0,0,1,1.13-.37c.68,0,.78.22.78,1.48,0,.65.05,1,.15,1s0,.85-.3,1.33a4.62,4.62,0,0,1-1.23,1.27,5.31,5.31,0,0,1-2.16.18Zm26.19-.34c-.24-.07-.43-.2-.43-.29a3.63,3.63,0,0,0-1.26-1.1,6.7,6.7,0,0,1-1.5-1.64c0-.3.35-.64.57-.56s.19.15.09.42c-.17.46,0,.72.82,1.11a9.84,9.84,0,0,1,1.44,1,3.81,3.81,0,0,0,1,.63c.29,0,.5.34.3.49s-.41.15-1,0Zm-52.11-1.46a13.31,13.31,0,0,0-1.45-.26,4.1,4.1,0,0,1-1.09-.28c-.4-.18-.55-.19-.79-.06a9,9,0,0,1-3.56-.26,3.35,3.35,0,0,1-.48-.81c0-.17.5-.12.56.06s.29.17.57.18,1,.09,1.63.16c1.29.16,2.87.3,4,.34a22.58,22.58,0,0,1,3.06.4c.19.07.36-.11,1-1a2.62,2.62,0,0,1,.78-.75c.31-.12.71-.05.71.12a10.93,10.93,0,0,1-1,1.18l-1,1.09-1,.05A7.21,7.21,0,0,1,68.42,105.79Zm-12.73-.3c-.11-.29.38-.56,1-.53.75,0,.85,0,.85-.2s-.21-.22-.59-.28c-.57-.08-.73-.22-.47-.38a.79.79,0,0,1,.48.06,5.52,5.52,0,0,0,1.23.18c.47,0,.92.06,1,.08a1.8,1.8,0,0,0,.57-.07c.5-.12.8.05.51.29a1.12,1.12,0,0,1-.5.19.86.86,0,0,0-.45.18,5,5,0,0,1-1.18.43c-1.16.32-2.29.34-2.4,0Zm27-.48c-.29-.21-.67-.52-1.37-1.1-.26-.22-.41-.43-.35-.52.17-.27.63-.16,1.18.29a6.48,6.48,0,0,0,1.18.73l.64.29.59-.31c1-.53,1.25-1.21.66-2a2.46,2.46,0,0,1-.36-.56c0-.17-.45-.44-.73-.45a3.16,3.16,0,0,1-.92-.33,3.49,3.49,0,0,0-2-.33c-1.34,0-2-.16-2-.47,0-.13.42-.16,1.74-.13a5.9,5.9,0,0,1,3.61.88c.23.14.48.23.54.19s.79.52.87.93c0,.21.13.56.21.79a1.67,1.67,0,0,1,0,.76A2.54,2.54,0,0,1,84.62,105c-1.23.2-1.67.2-1.93,0Zm-5.24-.13a.2.2,0,0,1,.15-.27,6.57,6.57,0,0,0,2.26-1.36c.1-.18.05-.3-.18-.53a1.47,1.47,0,0,0-.49-.33,9.86,9.86,0,0,1-1.48-.42,1.16,1.16,0,0,0-.58-.12c-.09.09-.42-.18-.42-.33s.12-.17.27-.25.35-.09.66.14a2.52,2.52,0,0,0,1.21.35,3,3,0,0,1,1,.21,2,2,0,0,1,.57,1.39c0,.66-.23.91-.81,1.08-.29.09-.52.2-.52.25s-.76.39-1.19.39a.48.48,0,0,1-.44-.2Zm-1.54-.17a2.64,2.64,0,0,0-.55-.33c-.33-.12-.51-.64-.3-.86s.23-.14.56,0A5.18,5.18,0,0,1,77,104.88c0,.17-.79,0-1.07-.18Zm-7.54-.18a2,2,0,0,1-.72-.29,1.71,1.71,0,0,0-1.07-.36,2.68,2.68,0,0,1-.79-.16,8.21,8.21,0,0,0-3.33-.37,5.19,5.19,0,0,1-2.24,0c0-.05.09-.22.26-.37s.48-.28,1.15-.26a2.61,2.61,0,0,0,2-.62c.71-.46.8-.72.23-.72-.25,0-.39-.07-.39-.18s.27-.34.7-.35a1.09,1.09,0,0,0,.54-.2,1,1,0,0,1,.52-.19,1.46,1.46,0,0,0,.7-.42c.33-.32.47-.38.59-.27s.07.27-.16.62-.37.47-.42.47a3.33,3.33,0,0,0-1.49,1.27c-.23.55-.15.7.37.7a5.28,5.28,0,0,1,1.27.31l1,.35a6.36,6.36,0,0,1,1,.36,1.07,1.07,0,0,0,1.09,0,1.35,1.35,0,0,0,.72-.51,6.21,6.21,0,0,1,.89-1.09c.56-.58.9-.82,1.23-.88a7,7,0,0,1,2.68.17.67.67,0,0,1,0,.9c-.26.26-.78.19-.86-.11a.91.91,0,0,0-.43-.45c-.31-.16-.45-.16-1,0a3.07,3.07,0,0,0-1.71,1.39,1.75,1.75,0,0,1-.6.58,1.69,1.69,0,0,0-.54.38c-.38.4-.58.45-1.21.31Zm25.08-.7a7.59,7.59,0,0,1-.9-1.68c-.33-1-.63-1.12-1-.51-.25.38-.26.38-.45.12s-.16-.32,0-.65.18-.38.12-.38.11-.15.38-.33a2.29,2.29,0,0,1,.61-.33.53.53,0,0,0,.29-.2c.23-.28.37-.24.37.1A6.74,6.74,0,0,0,94,103.89c.38.56.43.79.15.79a3.61,3.61,0,0,1-.75-.85Zm-47.68.5c-.22-.22-.05-.74.37-1.19a2,2,0,0,0,.46-.64.55.55,0,0,1,.2-.32,2.48,2.48,0,0,0,.58-1.37.67.67,0,0,1,.2-.46,1.56,1.56,0,0,0,.33-.64c.17-.62.27-.75.62-.86.64-.2.63.83,0,1.13-.32.15-.45.34-.55.84a9.29,9.29,0,0,1-1.41,3.08c-.5.54-.63.61-.79.45Zm85.42-.67c-.24-.47,0-.95.65-1.13a5.05,5.05,0,0,0,.82-2,.49.49,0,0,1,.15-.29,1.56,1.56,0,0,0,.31-1.22,1.7,1.7,0,0,0-.87-1,.7.7,0,0,1-.38-.58,1.72,1.72,0,0,0-.38-.76,4.1,4.1,0,0,1-.58-.85,1.43,1.43,0,0,0-.54-.63A7.76,7.76,0,0,1,129,92.62c0-.16-.13-.3-.19-.3-.24,0-1-.84-1.16-1.35a16.38,16.38,0,0,0-.85-1.63,6.61,6.61,0,0,1-.63-1.25,5.9,5.9,0,0,0-.45-1.11c-.42-.87-1-1.49-1.39-1.49a7.24,7.24,0,0,1-1.1-.39,8.29,8.29,0,0,0-1.47-.47,3.79,3.79,0,0,1-1-.32l-.92-.47-.66-.35-.53-.27a8.6,8.6,0,0,1-1.09-.79,7.67,7.67,0,0,0-1.18-.82,11,11,0,0,1-1.7-1,9.93,9.93,0,0,0-1.19-.68,4,4,0,0,1-.88-.57,4.28,4.28,0,0,0-1.08-.63,2.86,2.86,0,0,1-1.14-.83c-.42-.49-.54-.57-.7-.44s-.75,0-1-.51a1.09,1.09,0,0,0-.66-.49c-.57-.15-.56-.34,0-.43a1.57,1.57,0,0,1,1,.19l.59.28a2.41,2.41,0,0,1,1.05.67A10.19,10.19,0,0,0,113.53,79a3,3,0,0,1,1.51.88c.22.21.43.36.48.34s.23.09.39.24a30.61,30.61,0,0,0,3.43,1.93c.27.14.49.31.49.37s.1.12.22.12a2,2,0,0,1,.72.34,5.68,5.68,0,0,0,1.59.6,6,6,0,0,1,1.55.57,4,4,0,0,0,1,.47c.69.18,1.2.49,1.2.73a1.35,1.35,0,0,0,.31.54,23.16,23.16,0,0,1,2,4,2.21,2.21,0,0,0,.39.78,12,12,0,0,1,1.52,2.75A9.31,9.31,0,0,0,132,96c1.51,1.44,1.92,2,2,2.51a1.09,1.09,0,0,1-.12.9c-.12.18-.19.37-.15.4s0,.22-.07.42a2.15,2.15,0,0,0-.12.77.69.69,0,0,1-.11.5.4.4,0,0,0-.14.31,3.58,3.58,0,0,1-.31.89,1.73,1.73,0,0,1-.86,1c-.66.34-.76.35-.91.05Zm-13-.49a.84.84,0,0,1,.3-.38c.23-.09.19.35-.05.53S118,103.53,118.15,103.18Zm-79-1.33c-.13-.35-.09-.44.3-.64A4.11,4.11,0,0,0,40.8,100c0-.07.13-.14.29-.17s.41-.27.67-.77a6.32,6.32,0,0,1,2-2.45,1.76,1.76,0,0,1,.74-.34c.21.21,0,.59-.46.91s-1.38,1.44-1.33,1.76-.68.91-1,.91-.26.09-.26.4-.13.52-.49.85a2.13,2.13,0,0,1-.63.45.75.75,0,0,0-.36.26c-.27.32-.69.34-.81.05Zm77.51-.53a9.06,9.06,0,0,1-.89-.81.92.92,0,0,1,.14-1.19c.41-.39.53-.36.44.11a1.79,1.79,0,0,0,.92,1.68c.57.42.68.71.3.78A2.54,2.54,0,0,1,116.68,101.32Zm3.38.52c-.17-.17-.08-.31.42-.63a1.34,1.34,0,0,0,.67-.91c.17-.62.7-1.26.85-1a1.72,1.72,0,0,1-.05.74,1.86,1.86,0,0,0-.07.72c.21.34-.52.92-1.15.92a.73.73,0,0,0-.44.13c-.07.07-.17.09-.22,0Zm-33.34-1a2.18,2.18,0,0,1-.49-.9c-.19-1-.59-1.35-1.51-1.26-.58.06-.92,0-.92-.24s1.42-.18,2,.1a2.72,2.72,0,0,1,1.33,1.81c.29.87.1,1.08-.45.49Zm-31.46-.45c0-.3.92-.86,1.27-.77.18,0,.3,0,.3-.07s.09-.15.2-.15a.2.2,0,0,1,.2.2c0,.11-.12.2-.26.2s-.26.06-.26.13-.53.49-1,.58C55.37,100.58,55.27,100.55,55.27,100.41Zm-30.37-.12c-.12-.14-.1-.2.07-.27s.51.1.38.31S25.08,100.51,24.9,100.29ZM26,100a1.22,1.22,0,0,1-.43-.25,3.19,3.19,0,0,1,1.37-.55,1.58,1.58,0,0,0,.72-.19,3.07,3.07,0,0,1,.78-.26,1,1,0,0,0,.47-.2,1,1,0,0,1,.49-.19,2.09,2.09,0,0,0,.72-.27,4,4,0,0,1,1.75-.59c.06,0,.23-.08.36-.27s.31-.32.6-.25.45.22.19.42a14.67,14.67,0,0,1-2.52,1,.79.79,0,0,0-.44.31,1.37,1.37,0,0,1-.68.41,8.18,8.18,0,0,0-2.19,1c-.11.19-.71.15-1.22-.07Zm31.59-.59c-.11-.18,1.11-1.29,1.42-1.3s.28.1.1.58-1.3,1.09-1.52.72Zm7.21-.07c-.55-.24.39-.71,1.41-.71.22,0,.4-.05.4-.12s.33-.2.72-.28c.7-.16,1.77-.88,1.77-1.2,0-.13-.44-.1-1.21.1-.41.1-1.28,0-1.28-.19a6.28,6.28,0,0,1,2.19-.54,3.61,3.61,0,0,0,1.32-.52,7.48,7.48,0,0,1,1.27-.61,1.1,1.1,0,0,0,.57-.4,1.08,1.08,0,0,1,.46-.39,1,1,0,0,0,.44-.5,3.31,3.31,0,0,1,.65-.87,1.15,1.15,0,0,0,.47-.88,2.2,2.2,0,0,1,.15-.76c.21-.46,0-.57-.44-.3a1.88,1.88,0,0,1-.52.23c-.22,0-.13-.51.11-.64a4.89,4.89,0,0,0,1.35-1.32,2.35,2.35,0,0,1,.68-1.17,1.73,1.73,0,0,0,.47-2c-.14-.23-.13-.29,0-.35s.45-.32,1.22-1.2a2.61,2.61,0,0,0,.49-.7,1.73,1.73,0,0,1,.29-.54,4.73,4.73,0,0,0,1-2.34c0-.2,0-.4.06-.44s.09-.2,0-.44a1,1,0,0,1,.09-.85c.18-.4.2-.56.07-.79a.91.91,0,0,1,0-.71A10.26,10.26,0,0,0,79,76a9.93,9.93,0,0,1,0-1.53,6.66,6.66,0,0,0,.09-1.21A2.87,2.87,0,0,0,79,71.83a1.83,1.83,0,0,1-.24-.59c-.12-.8-.27-1.18-.55-1.36s-.31-.27-.32-.35-.2-.27-.43-.41a.81.81,0,0,1-.46-.75.82.82,0,0,0-.36-.69.68.68,0,0,1-.32-.42,5.68,5.68,0,0,0-1.43-2,2.45,2.45,0,0,0-1.32-.73,5.39,5.39,0,0,0-.83-.15s-.16-.06-.24-.17-.32-.17-.73-.11a5.31,5.31,0,0,1-2.48-.42c-.34-.25-.19-.53.33-.64a7.31,7.31,0,0,1,2.72.26.61.61,0,0,0,.54.06,4.5,4.5,0,0,1,2.34.75A3.72,3.72,0,0,1,77.1,67c0,.3.15.56.56,1s.75.8,1,1.07a2,2,0,0,0,.54.49c.06,0,.27.21.47.47.35.46.42.9.48,2.82a10.8,10.8,0,0,1-.3,2.39,4,4,0,0,0-.1,1.27c.08,2.28,0,3.73-.19,3.89a1.14,1.14,0,0,0-.26.61,10.88,10.88,0,0,1-.65,2.56,5.46,5.46,0,0,1-.81,1,3,3,0,0,0-.94,1.93,7,7,0,0,1-1.27,3A2,2,0,0,0,75,91a4.28,4.28,0,0,1-.27,1.21c-.1.2-.29.6-.41.9a3.84,3.84,0,0,1-.59.94c-.2.22-.59.67-.86,1a3.58,3.58,0,0,1-.91.81c-.82.39-1.15.61-1.22.79s-.23.19-.43.19c-.41,0-.65.24-1,1a2.92,2.92,0,0,1-2.58,1.43l-1.38.14a1.42,1.42,0,0,1-.56,0Zm-29.14-.53c-.13-.13-.1-.31,0-.31a.57.57,0,0,0,.3-.14c.14-.12,1.54-1.06,2.05-1.38.12-.07.5-.36.85-.65a4.92,4.92,0,0,1,1.18-.7,2.85,2.85,0,0,0,.74-.36,1.56,1.56,0,0,1,.72-.22c.46,0,.53,0,.57.24s-.06.32-.46.44a5.66,5.66,0,0,0-2.08,1.4.67.67,0,0,1-.45.31.43.43,0,0,0-.33.12,1.05,1.05,0,0,1-.5.21,2.51,2.51,0,0,0-.77.33,3.1,3.1,0,0,1-.92.37,1.19,1.19,0,0,0-.62.27c-.05.16-.2.18-.33.05Zm80.64-.26c0-.63,0-.66-.23-.89a.41.41,0,0,0-.43-.14c-.14,0-.24,0-.24-.07,0-.24.35-.53.65-.53a2.74,2.74,0,0,0,1-.66c.69-.63,1.12-.82,1.12-.51a2.7,2.7,0,0,1-.8,1.35c-.38.32-.83,1.21-.72,1.39s0,.18-.13.27S116.29,98.87,116.27,98.55Zm-38.82-.14c-.23-.23,0-.43.57-.56.8-.17,1.5-.64,1.31-.87a3.18,3.18,0,0,0-1.64-.35,8.38,8.38,0,0,0-2,.48,11.58,11.58,0,0,1-2,.27c-1.43.07-2.19-.14-2.28-.64,0-.22,0-.24.59-.17a4.05,4.05,0,0,0,2.29-.2,8.62,8.62,0,0,1,1.5-.39,15.34,15.34,0,0,1,3.16-.06c1.19.25,1.93.85,1.67,1.35-.13.25-.32.36-1.62.95-.59.27-1.3.36-1.48.19ZM34,96.77c-.1-.16.28-.51.55-.51A3.48,3.48,0,0,0,36,95.41a1.16,1.16,0,0,1,.54-.38c.26-.11.47-.26.47-.34a7.56,7.56,0,0,1,2.47-1.19c.16,0,.3.08.3.18s-.42.5-1.35.85a5.43,5.43,0,0,0-1.92,1.11,12.94,12.94,0,0,1-2.33,1.28s-.08-.07-.13-.15Zm-6.76-.31a.33.33,0,0,1,.23-.28A3.27,3.27,0,0,0,28,96,6,6,0,0,1,29,95.66l1.55-.35a3,3,0,0,0,1-.38,1.2,1.2,0,0,1,.92-.25c.35,0,.16.53-.26.71A10.41,10.41,0,0,1,30.1,96c-.12,0-.22,0-.22.11a6.57,6.57,0,0,1-2.14.48C27.35,96.66,27.26,96.63,27.26,96.47Zm33.89-.35c-.37-.22,0-.53.56-.51.77,0,.79,0,1.52-.71l.7-.7,0-1c0-1.22,0-1.59.27-1.68s.51,0,.69.55a3.9,3.9,0,0,1-1.4,4,4.29,4.29,0,0,1-2.3,0ZM33.31,94.84c-.15-.28.05-.54.42-.54a1.84,1.84,0,0,0,.78-.53c.51-.51.88-.63,1-.3A5.89,5.89,0,0,1,33.69,95a.27.27,0,0,1-.37-.14Zm-15.05-.2c.08-.22.45-.39.45-.21s-.12.19-.26.26S18.2,94.79,18.26,94.64ZM63,94.34c-.17-.17-.09-.31.18-.31s.25.07.22.16A.26.26,0,0,1,63,94.34Zm-27-1.54c-.26-.31,0-.61.46-.61s.53.11.31.53A.46.46,0,0,1,35.95,92.8Zm30.38-2.56c-.1-.19,0-.45.35-1.15.49-.91.8-2.45.56-2.75s-.09-1.46.47-2C68,84,68,83.82,68,83A4,4,0,0,0,68,82c-.2-.2.21-.57.63-.57,1,0,1.15,1.48.17,2.53a2.63,2.63,0,0,0-.43,2.35,1.88,1.88,0,0,1,0,1.27,1.86,1.86,0,0,0-.11.75,2.8,2.8,0,0,1-.79,1.55,4.79,4.79,0,0,1-.64.43c-.33.18-.37.17-.49-.05Zm11.56-3.82a.56.56,0,0,1,.17-.39,15.07,15.07,0,0,0,1-1.46,7.73,7.73,0,0,1,1-1.39c.31-.12.47.15.3.49a26.92,26.92,0,0,1-1.85,2.63c-.37.42-.67.47-.67.11Zm2.77,0c-.1-.18,0-.4.46-1a5.75,5.75,0,0,0,.58-.87,3.71,3.71,0,0,1,.46-.69c.44-.58.45-.63.33-1.2a1.73,1.73,0,0,1-.06-.72c.12-.2.53-.14.86.12s.29.27.13.85a2.15,2.15,0,0,1-.42.83.76.76,0,0,0-.25.46,2.79,2.79,0,0,1-.57.94c-.31.38-.67.86-.8,1C81.09,86.62,80.82,86.71,80.66,86.42Zm4.85-1.25a5.16,5.16,0,0,1,1-1.52,1.56,1.56,0,0,0,.68-1.18c.12-.88.19-1.06.46-1.2.42-.23.56.13.28.73a5.36,5.36,0,0,0-.33.88,1.65,1.65,0,0,1-.46.7,1.7,1.7,0,0,0-.47.68c-.13.52-.58,1.08-.87,1.08s-.25-.08-.25-.17Zm-1.45-.28a8.06,8.06,0,0,1,.46-.82,3.45,3.45,0,0,0,.46-1,5,5,0,0,1,.67-1.79,1.1,1.1,0,0,1,.52.48,4.88,4.88,0,0,1-.66,1.36c-.06,0-.14.13-.18.3-.16.57-1.26,1.88-1.26,1.49Zm32.25-5.76c.08-.25.49-.28.49,0s-.11.21-.27.21S116.29,79.23,116.32,79.14Zm1.19-.58a.28.28,0,0,1,.17-.35,6.17,6.17,0,0,0,1.63-1.79c.36-.71,1.18-1.14,1-.53a8,8,0,0,1-1.76,2.44,1,1,0,0,0-.44.26c-.21.25-.5.23-.61,0ZM102,78.38c-.12-.2.14-.37.72-.46a3.23,3.23,0,0,0,1.52-.73,3.37,3.37,0,0,1,1-.46c.61-.2.69-.26.69-.59a.63.63,0,0,0-.13-.45c-.24-.15-.13-.45.2-.54s.33-.18.33-.3a.56.56,0,0,1,.62-.54c.78,0,1.74-1.71,1.84-3.29a5.59,5.59,0,0,1,.21-1.25A5.66,5.66,0,0,1,110.15,68a1,1,0,0,0,.33-.75,3.25,3.25,0,0,1,.3-1A3.59,3.59,0,0,0,111,64.5c0-1.08,0-1.32.27-1.61a.88.88,0,0,0,.19-.81.68.68,0,0,1,.25-.78c.72-.68.74-3,0-4.09a8.27,8.27,0,0,1-.53-1.05l-.36-.85a3.13,3.13,0,0,1-.16-.72,5.58,5.58,0,0,0-.86-2.14,3.27,3.27,0,0,1-.34-.53.65.65,0,0,0-.58-.34c-.5,0-.61-.24-.42-.73.12-.32.1-.37-.2-.51a1.28,1.28,0,0,1-.53-.64,1.3,1.3,0,0,0-.52-.63,1.11,1.11,0,0,1-.47-.48.82.82,0,0,0-.39-.41.67.67,0,0,1-.43-.77c.18-.46.66-.2,2,1.11a8.65,8.65,0,0,0,1.54,1.32c.11,0,.29.19.41.43a4.7,4.7,0,0,0,.37.62,10.39,10.39,0,0,1,1,2.86,9.69,9.69,0,0,0,1.07,2.86,5.68,5.68,0,0,1,.39,4.45c-.15.35-.3.72-.4,1l-.41.85c-.37.77-.38.85-.4,2.91s0,2.13-.37,2.59a7.65,7.65,0,0,1-.86.91c-.53.46-.6.68-1.06,3.23a2.85,2.85,0,0,1-1.44,2c-.42.2-.47.28-.53.87s-.1.66-.36.65-.3.06-.3.27c0,.37-.48.8-1,.92-.24,0-.43.13-.43.18s-.81.54-1.32.63a1.25,1.25,0,0,0-.53.18,1.88,1.88,0,0,1-1.38.12Zm-2.07-.14a.7.7,0,0,0-.49-.05c-.18.06-.26,0-.26-.12s.12-.21.39-.21a2.4,2.4,0,0,0,.71-.12c.45-.17.88.13.63.44A.78.78,0,0,1,99.95,78.24ZM48.86,75.88a.45.45,0,0,1-.07-.81,1.47,1.47,0,0,0,.37-.5,15.54,15.54,0,0,1,1.37-2.63,8.61,8.61,0,0,0,1.18-1.05,4.82,4.82,0,0,0,1.71-2.79.61.61,0,0,1,.13-.44,5,5,0,0,0,.61-.83,4,4,0,0,1,1.72-1.75,13.64,13.64,0,0,1,3.84-1,1.42,1.42,0,0,0,.73-.31,2.91,2.91,0,0,1,1.13-.42A10.82,10.82,0,0,0,62.9,63a22.33,22.33,0,0,1,3.55-.38,3.94,3.94,0,0,1,1.12.21l.82.27c.23.07.21.52,0,.71a.64.64,0,0,1-.56.07,7,7,0,0,0-1-.14l-1.45-.13c-.43,0-1.23-.11-1.77-.14-1,0-1,0-1.32.35a1.31,1.31,0,0,1-.86.47,1.88,1.88,0,0,0-.72.24,1.54,1.54,0,0,1-.59.23l-.92.16a4.61,4.61,0,0,0-1.41.48,1.16,1.16,0,0,1-.44.12c-.75,0-2.56,1.72-2.56,2.43a1.3,1.3,0,0,1-.19.67,1,1,0,0,0-.2.42c0,.53-1.08,2.14-1.42,2.14a5.06,5.06,0,0,0-1,.91,6.67,6.67,0,0,0-1.41,2.2c-.77,1.77-.93,1.92-1.68,1.62Zm72.25-.49c-.1-.16,0-.26,1-.74s1.18-.71,1.18-.93a.93.93,0,0,1,.3-.43,4.39,4.39,0,0,0,.89-1.5,10.77,10.77,0,0,1,1.9-2.06,4.77,4.77,0,0,0,1.18-2.14.27.27,0,0,1,.06-.28,2.16,2.16,0,0,0,.14-.88c0-.4,0-.81,0-.92a2.88,2.88,0,0,0-.08-.6c-.08-.35,0-.52.55-1.25a6.56,6.56,0,0,0,.9-5.42,2.28,2.28,0,0,1,0-1.32,4.87,4.87,0,0,0,.22-2.12.89.89,0,0,1,0-.52,2.23,2.23,0,0,0-.25-1.58,4.5,4.5,0,0,1-.54-3c.15-.31.14-.42-.07-.85a4.52,4.52,0,0,1-.34-1.15,2.75,2.75,0,0,0-.28-.92,1.23,1.23,0,0,1-.18-.6,1.55,1.55,0,0,0-.49-.86,5,5,0,0,1-1.22-2.23.53.53,0,0,0-.13-.39.83.83,0,0,1-.13-.54,1.66,1.66,0,0,0-.25-.81,2.49,2.49,0,0,1-.34-.85,2.28,2.28,0,0,0-.47-.93,14.14,14.14,0,0,1-1.48-2.06,8.37,8.37,0,0,0-.44-.75,2.09,2.09,0,0,1-.3-1,4.75,4.75,0,0,0-.68-2.12l-.55-.61a2.16,2.16,0,0,1-.45-.76,2.7,2.7,0,0,0-.25-.63,15.52,15.52,0,0,1-.77-3.49,2.53,2.53,0,0,0-.35-1.23,1.93,1.93,0,0,1-.3-.53,3.35,3.35,0,0,0-.63-1.31c-.13-.13-.21-.3-.16-.37a3.06,3.06,0,0,0-.54-1.45,1.56,1.56,0,0,1-.19-.58c0-.59-1.16-2.43-1.54-2.43-.22,0-1-.94-1-1.23a1,1,0,0,1,.18-.51,1.34,1.34,0,0,0,.13-.79c0-.31-.05-1.08-.07-1.71a4.12,4.12,0,0,0-.11-1.15,3.51,3.51,0,0,1-.59-.7,1.75,1.75,0,0,0-1-.85,3.29,3.29,0,0,1-1.18-.75,2.66,2.66,0,0,0-.82-.6,5.16,5.16,0,0,1-1.64-1.69,1,1,0,0,0-.2-.47,1,1,0,0,1-.19-.48.33.33,0,0,0-.18-.29,6.69,6.69,0,0,1-.88-2.77c0-.4-.06-.61-.2-.66s-.2-.28-.2-.84a2.13,2.13,0,0,0-.19-1c-.18-.24-.2-.22-.46.38a1.54,1.54,0,0,0-.14,1.18,6.88,6.88,0,0,1,.13,1.25,5.36,5.36,0,0,0,.39,1.71c.57,1.5.59,1.6.35,1.69s-.57-.16-.67-.65a1.88,1.88,0,0,0-.19-.55,16.82,16.82,0,0,1-.65-4.29c0-1.47.65-2.83,1.39-3.17.26-.12.36-.1.54.07s.22.55.24,2.22a6,6,0,0,0,.17,2.05c.08,0,.14.22.14.43a2.25,2.25,0,0,0,.12.68,7.68,7.68,0,0,1,.45,1.65,7,7,0,0,0,1.62,2.33,6.88,6.88,0,0,1,.76.6,3.35,3.35,0,0,0,1.07.58,2.62,2.62,0,0,1,.93.48,2.67,2.67,0,0,0,.63.47c.48.25.73.49.73.7a1.58,1.58,0,0,0,.3.57,2.85,2.85,0,0,1,.57,2.33,8.49,8.49,0,0,1-.27,2c-.06.18.1.44.55.93a3.25,3.25,0,0,0,.76.68c.5,0,1.43,1.9,1.28,2.63a.51.51,0,0,0,.14.52.68.68,0,0,1,.21.45,1.25,1.25,0,0,0,.26.61,1.38,1.38,0,0,1,.26.44,1.72,1.72,0,0,0,.33.5,1.37,1.37,0,0,1,.33.62.58.58,0,0,0,.12.35,8,8,0,0,1,.6,2.62,7.78,7.78,0,0,0,.74,2.76,3.06,3.06,0,0,1,.25.65,8.58,8.58,0,0,0,.75,1.23,3.4,3.4,0,0,1,.85,2,3.26,3.26,0,0,0,1.17,2.29,5.3,5.3,0,0,1,.69.92l.43.85a8.42,8.42,0,0,0,.47.81,4.77,4.77,0,0,1,.45,1.18,10.28,10.28,0,0,0,.53,1.52,5.8,5.8,0,0,1,.32.77,4.07,4.07,0,0,0,.51.7,4.44,4.44,0,0,1,1.1,3.11,6.16,6.16,0,0,0,.11,1.25,9.51,9.51,0,0,1,.78,2.46,2.08,2.08,0,0,0,.27.88,1.58,1.58,0,0,1,.18,1.22,22.42,22.42,0,0,0,.09,4.65c.31,1.82.15,3.94-.34,4.47a2.69,2.69,0,0,0-.46.85,2.61,2.61,0,0,1-.34.73,6,6,0,0,0-.59,2.23,3.12,3.12,0,0,1-.46,1.25c-.25.43-.58,1.06-.74,1.38a3.2,3.2,0,0,1-.37.66,2.08,2.08,0,0,0-.31.48,5.39,5.39,0,0,1-.81,1,3.23,3.23,0,0,0-.6.71,8.67,8.67,0,0,1-1,1.83,2.83,2.83,0,0,1-1.83,1.36c-1,.37-1.46.46-1.56.3ZM78.59,44a.63.63,0,0,0-.92-.25c-.32.32-.47.24-.37-.22s.3-.71.94-1a2.13,2.13,0,0,0,.56-.3,3.71,3.71,0,0,1,.83-.38c.78-.29,1.54-.37,1.54-.17s-.37.44-.53.34a3,3,0,0,0-2,.74c-.34.47-.32.69,0,.6a.59.59,0,0,1,.47.07A11,11,0,0,0,83.25,43a1.92,1.92,0,0,1,.61-.25,3.83,3.83,0,0,0,.88-.38,4.54,4.54,0,0,1,1.19-.44,2.3,2.3,0,0,0,.62-.15.43.43,0,0,1,.38,0c.19.11.2.14,0,.19l-.67.21a3.15,3.15,0,0,1-.7.15,2.32,2.32,0,0,0-1.16.61,1.79,1.79,0,0,1-.72.3l-1.3.35a5,5,0,0,1-.94.19,2.54,2.54,0,0,0-.74.2c-.65.27-2,.27-2.15,0Zm-5.77-.72a.14.14,0,0,0-.19-.07c-.12.07-.67-.41-.67-.58a.28.28,0,0,1,.13-.2c.26-.16.13-.33-.25-.33-.21,0-.41-.07-.44-.16s-.12-.13-.31,0c-.68.4-2.1.36-2.24-.06a1.71,1.71,0,0,0-.27-.44.73.73,0,0,1-.13-.58,1.06,1.06,0,0,0-.39-1c-.17-.11-.09-.54.16-1a3,3,0,0,0,.26-.58,7.41,7.41,0,0,1,1-1.39l1.33-1.52a6.49,6.49,0,0,1,.74-.72,4.41,4.41,0,0,0,.77-1c.33-.53.49-.68.75-.68s.32,0,.25.31a11,11,0,0,0-.16,1.15c-.09,1-.09,1-.54,1s-.74.37-.65,1.19c.06.55,0,.71-.12.77s-.56-.16-.66-.62c0-.21-.14-.39-.21-.39s-.16.15-.13.68c0,.29-.06.39-.46.56s-.48.22-.42.76c.09.8.34,1.25.78,1.4s.42.09.6-.12.32-.24.71-.18.5,0,.58-.27a1.64,1.64,0,0,1,1.26-1,1.88,1.88,0,0,0,.57-.18,2,2,0,0,1,.6-.19c.5-.09.91.15.91.54a1.51,1.51,0,0,1-.87,1.17,4.76,4.76,0,0,1-.52.2c-.11,0,0-.31.17-.74.12-.26.17-.5.1-.57s-.7.09-.83.42-.77,1-.89.85-.22,0-.37.17a2,2,0,0,1-1.12.35,4.46,4.46,0,0,0-1.14.25c-.28.14-.29.17-.09.34a3.21,3.21,0,0,0,1.44.2,7.65,7.65,0,0,1,1.33.09,2.22,2.22,0,0,0,.82-.11,2.22,2.22,0,0,1,1.28,0,3.1,3.1,0,0,0,1,.07c.51-.08.55,0,.31.71s-.47.92-.84.75a.91.91,0,0,1-.42-.47c-.1-.29-.19-.33-.83-.36s-.76,0-1.14.37-.42.42-.22.71.17.37.12.44a.34.34,0,0,1-.53,0Zm-3.62-3.71c0-.3-.21-.5-.43-.42s-.19.13-.06.33S69.21,39.8,69.21,39.55Zm18.18,2.24c0-.09.27-.22.52-.3A1.61,1.61,0,0,0,89,40.64c.09-.29.62-.53,1.18-.53.86,0,.75.41-.29,1.05s-2.64,1-2.5.63Zm-5.93-.32c0-.23.16-.31,1-.63.29-.12.69-.3.89-.4a.88.88,0,0,1,.56-.12c.21.08,1-.22,1-.38s.07-.1.16-.1a1.16,1.16,0,0,0,.47-.24l.31-.24-.36-.24c-.3-.2-.39-.21-.51-.06-.25.32-1.33.41-1.33.12s.44-.28,2.5-.44c.51,0,1.14-.11,1.42-.16s.48-.05.42.1A6.8,6.8,0,0,1,85.78,40a7.62,7.62,0,0,0-.92.51,3,3,0,0,1-.83.17,2.46,2.46,0,0,0-1.69.72c-.32.34-.94.38-.88.06Zm-1.6-.57c0-.07.21-.13.46-.13s.46-.06.46-.13.14-.13.31-.13a.7.7,0,0,0,.48-.2c.21-.25.53-.26.53,0s-.34.29-.88.46C80.26,41.06,79.86,41.1,79.86,40.9Zm-2.6-.09c-.53-.21.33-1.36,1-1.36a.76.76,0,0,0,.52-.18,1.17,1.17,0,0,1,.56-.26,1.09,1.09,0,0,0,.6-.34.59.59,0,0,1,.35-.26,3.42,3.42,0,0,0,.88-.51,12.11,12.11,0,0,1,1.14-.73c.24-.12.43-.31.43-.41s.4-.25,1.31,0c.49.11.7.12.77,0s.25-.11.45-.08c.67.13.33.43-.48.43a1,1,0,0,0-.58.15,1.44,1.44,0,0,1-.78.13,4.15,4.15,0,0,0-2.51,1.1,7.58,7.58,0,0,1-1.34.82,6.82,6.82,0,0,0-1.49,1c-.35.33-.65.6-.66.6l-.19-.08Zm14.21-.52c-.1-.27-.1-.27,1-.36s1.23,0,.89.35-1.76.28-1.87,0Zm2.5-.12c-.12-.3.12-.48.77-.6l1.06-.19c.39-.07.49-.05.49.1s-.44.46-1.18.57a3.53,3.53,0,0,0-.82.21c-.17.09-.25.07-.31-.09Zm5.8-.06A2.61,2.61,0,0,0,99,40a1.18,1.18,0,0,1-.64-.14.72.72,0,0,0-.44-.14c-.31,0-.52-.2-.33-.31a3.45,3.45,0,0,1,1,.07,12.22,12.22,0,0,0,4.26-.48c.79-.27,1.25-.26,1.2,0a.44.44,0,0,1-.31.3,4.47,4.47,0,0,0-.85.46,2.46,2.46,0,0,1-1.71.42,6,6,0,0,1-1.39-.08ZM80.91,39.5c0-.27,1.76-.68,1.91-.44s-.36.28-.85.32a4.51,4.51,0,0,0-.69.13c-.2.06-.36.05-.36,0Zm24.53-.44c-.35,0-.53-.13-.53-.26s.28-.24,1.05-.35c1.11-.16,1.7-.34,1.83-.56a6.36,6.36,0,0,1,1.42-1c.13,0,.23-.15.23-.22a.83.83,0,0,1,.23-.38c.13-.13.33-.36.45-.51a6.47,6.47,0,0,0,.64-2.31,2,2,0,0,1,.28-.82c.21-.36.24-.51.13-.65s-.08-.55.21-.88a2.37,2.37,0,0,0,.22-1.59c-.07-.47-.09-.48-.53-.41l-.46.07.06-.51a2.15,2.15,0,0,0,0-.8,1.61,1.61,0,0,1,0-.79c.19-.7.23-1.14.11-1.29a2.28,2.28,0,0,1-.17-.7,1.5,1.5,0,0,0-.35-.83.85.85,0,0,1-.27-.49,1,1,0,0,0-.19-.49,1,1,0,0,1-.2-.48c0-.13-.22-.34-.5-.49a6.7,6.7,0,0,1-1.28-1.13,23.06,23.06,0,0,0-3.32-3.18,2.42,2.42,0,0,1-.69-.58c0-.07-.07-.12-.16-.12a3.74,3.74,0,0,1-.92-.6c-.6-.48-.76-.68-.76-1,0-.5.17-.58.69-.31a2.84,2.84,0,0,0,.69.27c.23,0,.24,0,.06-.12-.46-.37-.72-1.72-.37-1.84.12,0,.1-.21-.08-.67a1.52,1.52,0,0,1-.15-.75c.16-.27.4-.13.62.36a8.27,8.27,0,0,0,.75,1.22,6.23,6.23,0,0,0,1.31,1.47A2,2,0,0,1,106,16c0,.39-1.5-.37-1.65-.83a.77.77,0,0,0-.33-.37c-.53-.28-.25.25.57,1.09s1.59,1.41,2,1.41c.14,0,.31.17.42.43s.15.44,0,.53-.22.48.15.62a4.12,4.12,0,0,1,.8.48c.4.31.6.36,1.47.38l1.11,0c.06,0,.16.17.23.36.25.66-.32.87-1.42.51-.53-.17-.35.4.36,1.11a2.41,2.41,0,0,1,.66.92,5.22,5.22,0,0,0,.91,1.59,14.56,14.56,0,0,1,.66,2.84,4.65,4.65,0,0,0,.54,1.84,2.54,2.54,0,0,1-.5,2.92c-.34.25-.35.29-.21.7a4.94,4.94,0,0,1-.18,3.17,2.66,2.66,0,0,1-1.43,1,1.78,1.78,0,0,0-.69.54c-.94,1-1.22,1.25-1.9,1.47a4.61,4.61,0,0,1-2.14.23ZM86.69,37.63c-.29-.23-.51-1.2-.27-1.2a1.76,1.76,0,0,1,.49.43,3.64,3.64,0,0,0,.64.57c.14.08.21.2.15.3S87,37.91,86.69,37.63Zm1.59-.22a.55.55,0,0,1,.35-.2,1.29,1.29,0,0,0,.48-.16l.32-.17a2.14,2.14,0,0,0-.11-.49c-.19-.69-.56-.9-1.29-.74-1.09.25-1.26-.1-.28-.6a3.38,3.38,0,0,1,1.32-.35,1.73,1.73,0,0,0,.73-.12,1.54,1.54,0,0,1,.62-.19,1.35,1.35,0,0,0,.64-.23,1.77,1.77,0,0,1,.82-.2c.59,0,.75,0,.82.15a.37.37,0,0,0,.32.21,3.38,3.38,0,0,1,.86.27,5.15,5.15,0,0,0,1.6.32,2.09,2.09,0,0,1,1.23.28c.54.49.21.85-.51.54a3.32,3.32,0,0,0-2.73-.16c-.41.27-1.26.33-1.34.1s.11-.23.35-.32c.42-.16.49-.3.29-.6-.07-.12-.24-.15-.49-.1s-.64.11-1,.15c-.76.09-1.42.33-1.5.55a1.47,1.47,0,0,0,.1.67,2.89,2.89,0,0,1,.16.68c0,.2-.52.51-1.27.77s-.72.2-.52,0ZM74.14,33.88a1.94,1.94,0,0,1,.05-1.77,4.32,4.32,0,0,0,.74-1.6c0-.06.17-.29.45-.51a4.25,4.25,0,0,0,.86-1,1.73,1.73,0,0,1,.6-.66c.14,0,.26-.14.26-.2s.27-.23.59-.38a3,3,0,0,0,.59-.3s.12-.37.26-.76c.28-.76.33-1.13.16-1.21a2.11,2.11,0,0,1-.31-.67c-.2-.59-.2-.62,0-.62.43,0,.61-.14.56-.43s0-.48.57-.85a1.09,1.09,0,0,1,1.6.15,1,1,0,0,1,.39.93c0,.65-.47,1-1.23,1-.46,0-.61-.07-.83-.36s-.27-.28-.27-.18c0,.27.85,1,1.25,1.1a2.08,2.08,0,0,0,1.8-.65c.48-.47.51-.54.44-1,0-.29-.11-.75-.15-1-.08-.6-.74-1.34-1.08-1.2a5.49,5.49,0,0,1-1,.16c-.62.06-.77,0-.84-.14-.24-.62.43-1.9.9-1.72a.35.35,0,0,1,.23.28c0,.1.22.28.49.38,1,.39,1.38.65,1.61,1.1a5.75,5.75,0,0,1,.46,1.84c0,.3.3.31.46,0s.11-.27.07-.27,0-.13.11-.3a1.54,1.54,0,0,0,0-1.7,1.54,1.54,0,0,0-.89-1,3.15,3.15,0,0,0-1.91-.47c-.47.08-.47.07-.38-.3a2.94,2.94,0,0,1,.48-.86A2.11,2.11,0,0,0,81.7,18c0-.45,1.66-1.6,2.31-1.6a1.5,1.5,0,0,0,.58-.34,3.4,3.4,0,0,1,1-.53,7.26,7.26,0,0,0,1.2-.51,2.63,2.63,0,0,1,.83-.33c.35,0,.47.29.19.45a3,3,0,0,0-.52.42,1.62,1.62,0,0,1-.67.37,7.51,7.51,0,0,0-1.88.77.24.24,0,0,1-.21.1.75.75,0,0,0-.4.26,1.35,1.35,0,0,1-.61.34c-.21,0-.38.14-.38.2s-.08.12-.18.12c-.26,0-.93.91-.78,1.07a1.33,1.33,0,0,0,.64.14,2,2,0,0,1,1.58.91c.11.21.25.38.32.38s.19.24.28.53a1.58,1.58,0,0,1,0,1.08l-.27.91a1.36,1.36,0,0,0,0,.61c.08.31-.41.81-.8.82-.19,0-.35.18-.53.56s-.36.58-.69.66a1,1,0,0,0-.56.37c-.1.19-.28.26-.65.26a4.34,4.34,0,0,0-1.24.28c-.71.27-.73.3-.87.93a4.84,4.84,0,0,0,0,2.17.61.61,0,0,1-.4.87c-.35.12-.51-.18-.51-1,0-.54-.05-.77-.19-.82s-.29,0-.48,1c-.13.7-.13.92,0,1s.2.78,0,.86-.44-.05-.6-.47c-.09-.23-.23-.36-.41-.36s-.24.06-.19.14a.33.33,0,0,1-.08.33,1.1,1.1,0,0,0-.08.77,1.05,1.05,0,0,1-.11.82c-.19.24-.21.23-.52-.15a1.48,1.48,0,0,1-.33-.56c0-.09-.05-.16-.11-.16a4.5,4.5,0,0,0-.38,2c0,.46,0,.53-.27.57s-.34-.06-.49-.42ZM87.45,29.8a10.23,10.23,0,0,1,1.76-1.86,4.46,4.46,0,0,0,.93-.92,4.53,4.53,0,0,1,1.07-1,1.11,1.11,0,0,0,.48-.37c.1-.19.25-.21,1.28-.1a5.13,5.13,0,0,1,1.45.3,1.18,1.18,0,0,0,.49.19,1.11,1.11,0,0,1,.43.12c.13.07.58.25,1,.41s1.08.43,1.43.6a3.05,3.05,0,0,0,.94.31c.68,0,.93.32.52.66-.16.14-.29.1-.72-.18a2.1,2.1,0,0,0-.92-.35,4,4,0,0,1-1.85-.86.67.67,0,0,0-.46-.19.52.52,0,0,1-.39-.14c0-.08-.23-.11-.42-.06a2.81,2.81,0,0,1-1.16-.2l-.84-.28-.57.34a5,5,0,0,0-1.54,1.41A7.92,7.92,0,0,1,89.1,29.1a4.11,4.11,0,0,1-1.62.89c-.08,0-.1-.07,0-.18Zm3.65-.41c-.63-.64-.73-.81-.34-.6.14.07.27.11.3.08a1.42,1.42,0,0,1,.58.13,3.79,3.79,0,0,0,1,.19,5.28,5.28,0,0,0,2.64-1.1c.6-.49.88-.59.88-.3,0,.48-2.17,1.84-2.92,1.83a.73.73,0,0,0-.51.18.93.93,0,0,1-.61.19C91.77,30,91.56,29.87,91.1,29.39Zm.52-1.17a1.07,1.07,0,0,1,0-.53c.1-.42.82-1.13,1.14-1.13s.92.76.92,1.09-.63.6-1.38.7c-.48.07-.61,0-.67-.13Zm8.75-.09a.52.52,0,0,1-.35-.21c-.06-.19.54-.29,1.9-.33,1.16,0,1.53.1,1.14.43A6.82,6.82,0,0,1,100.37,28.14ZM87.84,26.88c-.15-.15-.1-.44.07-.44a6.51,6.51,0,0,0,1.22-1.1A8.43,8.43,0,0,1,90.65,24c.25-.12.61-.3.79-.41.38-.22,1-.26,1.12-.06s-.18.48-.8.64a7.26,7.26,0,0,0-2.69,1.69C88,26.88,87.94,27,87.84,26.88ZM99,25.79a6.91,6.91,0,0,1-1.05-.41,3.87,3.87,0,0,0-.92-.33l-.84,0a1.29,1.29,0,0,1-1-.49c-.26-.26-.5-.42-.55-.36-.23.33-1.72,0-1.72-.4s1.07-.62,1.68-.31a4,4,0,0,0,.81.28,2.46,2.46,0,0,1,.79.35,2.87,2.87,0,0,0,1,.36A8.74,8.74,0,0,1,99,25a5.23,5.23,0,0,0,.85.19,5.7,5.7,0,0,1,.9.2c.33.13.28.36-.08.36-.13,0-.46,0-.75.06a3.19,3.19,0,0,1-.92,0ZM89.86,15.26A5.8,5.8,0,0,0,89,15c-.61-.17-.66-.22-.82-.79a2,2,0,0,0-.37-.77,1.08,1.08,0,0,1,0-1.24c.25-.38.51-.33,1.78.37a4.09,4.09,0,0,0,1.15.48c.35,0,.39.45.08.89-.19.26-.19.29,0,.29s.2.12.2.3a.79.79,0,0,1-1.18.76Zm.09-1.63c-.31-.4-1.06-.74-1.23-.56s.78.88,1.14,1S90.27,14.05,89.94,13.63Zm9.88,1.66a1.13,1.13,0,0,1-.61-.37.83.83,0,0,0-.76-.32,1.54,1.54,0,0,1-.76-.2A1.28,1.28,0,0,0,97,14.2c-.6,0-1.35-.24-1.44-.46s-.24-.19-.48-.19-.6-.19-1.32-.88a4.78,4.78,0,0,1-.92-1.05c0-.27.77-.2,1.08.1a1,1,0,0,0,.5.26,3.57,3.57,0,0,1,1,.45,6.43,6.43,0,0,0,2.19.87,13.35,13.35,0,0,1,2.26.87c.48.25,1,.23,1.14,0a7.38,7.38,0,0,0,.08-1.71,5.42,5.42,0,0,1,.06-1.48c.19,0,.44.82.46,1.49a6.06,6.06,0,0,1-.54,2.81c-.22.16-.54.18-1.26.07Zm5.93-.61a8,8,0,0,1-1.88-2.32.8.8,0,0,0-.47-.42c-.31-.11-.4-.24-.5-.74-.15-.69-.11-.82.25-.82.17,0,.26.09.26.29,0,.55.3,1.14.62,1.22s.31.15.31.24a4.39,4.39,0,0,0,1.38,1.69c.74.44.78,1.18,0,.86Zm-.09-1.37a6.49,6.49,0,0,0-.67-.83,4.64,4.64,0,0,1-1.2-2.48c-.15-.94-.16-1.85,0-1.85s.26.38.4,1.32a5.54,5.54,0,0,0,1,2.61.62.62,0,0,1,.17.36c0,.1.21.27.47.38s.46.27.43.43A.32.32,0,0,1,105.66,13.32Zm.37-1.25a8.88,8.88,0,0,1-.89-1.45c-.41-.84-.43-1-.49-2.73,0-1.21,0-1.84.07-1.84a.18.18,0,0,1,.15.16l0,.3a.78.78,0,0,0,.1.26,4.77,4.77,0,0,1,.08,1.12,3.41,3.41,0,0,0,.19,1.38,3.91,3.91,0,0,1,.29.79,5.13,5.13,0,0,0,1.27,1.9c.31.26.31.27.06.46S106.54,12.7,106,12.07Zm-15.77.17a4.08,4.08,0,0,0-1-.33c-.31-.05-.56-.15-.56-.21a5.32,5.32,0,0,0-.85-.93c-.82-.78-1.08-1.3-.65-1.3a3.42,3.42,0,0,1,1.33.94c.17.23.93.59,1,.48s-.26-.32-.67-.63c-1.09-.84-1.5-1.41-1.49-2.09V7.61l.32.3a2.56,2.56,0,0,1,.51.74,4.34,4.34,0,0,0,1.4,1.47c.18,0,.11-.23-.09-.31a.32.32,0,0,1-.2-.27A1,1,0,0,0,89,9a3.26,3.26,0,0,1-.74-1.73,2.55,2.55,0,0,0-.19-.77,5.33,5.33,0,0,1-.27-1.25c-.07-.7,0-.83.24-1.16a2.3,2.3,0,0,0,.41-.84,2,2,0,0,1,.25-.65,1,1,0,0,0,.16-.53c0-1.65.05-1.73.33-1.83a2.32,2.32,0,0,1,.93,0c.57.12.67.11.78-.09A.48.48,0,0,1,91.3,0c.26,0,.47.45.87,1.88a4.67,4.67,0,0,0,.63,1.32c.23.31.61.83.84,1.16a6.27,6.27,0,0,0,1.11,1.14c1.5,1.17,1.63,1.3,1.43,1.53s-.6.24-1.46-.55c-.46-.42-1-.88-1.24-1A7.16,7.16,0,0,1,91.55,3a4.63,4.63,0,0,0-.64-1c0,.07-.09,0-.21-.16-.32-.46-.58-.38-.46.14a4.47,4.47,0,0,0,.6,1.73A.66.66,0,0,1,91,4a1.39,1.39,0,0,0,.32.44c.41.43.56,1.32.21,1.32s-1.36-1.26-1.64-2.14a.39.39,0,0,0-.36-.23c-.23,0-.27.06-.2.3s.15.67.24,1.12a2,2,0,0,0,.26.82c.06,0,.1.08.1.18a4.91,4.91,0,0,0,.87,1.78c.46.55.57,1.25.21,1.44s-.28.09-.41-.27a1.41,1.41,0,0,0-.41-.6c-.14-.1-.26-.24-.26-.3a3.46,3.46,0,0,0-.39-.74,2.5,2.5,0,0,1-.39-1,.62.62,0,0,0-.14-.45A.24.24,0,0,1,89,5.44a1,1,0,0,0-.13-.59c-.16-.31-.24-.36-.38-.25s-.14.25,0,.6.19.46.25.46.11.14.11.32a.55.55,0,0,0,.13.4.15.15,0,0,1,.06.2,1.75,1.75,0,0,0,.26.79,4,4,0,0,1,.34.81,5.38,5.38,0,0,0,1,1.82c.18.17.32.25.32.18,0-.23.26.27.26.51s-.07.22-.49.14-.48-.07-.31.13a.58.58,0,0,0,.35.22c.09,0,.17.13.18.3s0,.44,0,.61C91,12.5,90.81,12.54,90.25,12.24Zm5.46-.37a.76.76,0,0,1-.33-.15A2.66,2.66,0,0,0,95,11.4c-.35-.22-.5-.62-.23-.62a5.81,5.81,0,0,1,1.3.68c.15.1.28.25.28.34s-.13.18-.59.07ZM107,11.18a1.21,1.21,0,0,1-.48-.7,2.69,2.69,0,0,0-.45-.84,1.3,1.3,0,0,1-.28-.89,1.92,1.92,0,0,0-.16-.8,3.15,3.15,0,0,1-.13-1.13c0-.53,0-1.29,0-1.68,0-.55,0-.74.2-.85s.27-.1.38,0,.1.26-.09.61-.21.49-.09.65a1,1,0,0,1,.14.57,6.31,6.31,0,0,0,1.36,4.27c.58.58.34,1.07-.38.78Zm-13.46-.5a4,4,0,0,1-.66-.62c-.18-.22-.46-.52-.63-.67s-.41-.84-.19-.84a4.12,4.12,0,0,1,.76.79,4.07,4.07,0,0,0,.87.86,1.09,1.09,0,0,1,.43.39c.2.3.2.32,0,.32a1.36,1.36,0,0,1-.56-.23Zm1.34-.62c-1.15-.61-2.37-1.7-2.42-2.16s.31-.42,1,.2a7.69,7.69,0,0,0,2.06,1.52.75.75,0,0,1,.46.38C96.07,10.48,95.72,10.5,94.88,10.06Zm5.61,0a5.06,5.06,0,0,1-.55-.69,1.73,1.73,0,0,0-.58-.53A4.1,4.1,0,0,1,98,7.88c0-.07-.24-.21-.53-.33S97,7.29,97,7.24a.19.19,0,0,1,.32-.16,3.44,3.44,0,0,0,.72.27,3,3,0,0,1,.72.29l1,.71a2.8,2.8,0,0,1,1,1,7.09,7.09,0,0,0,.28.66c.26.49.06.49-.42,0ZM94.31,8.18c-1-.78-1.43-1.29-1.43-1.66s.5-.18,1.26.61a9.4,9.4,0,0,0,1.28,1.12c.52.33.58.6.14.67a3.12,3.12,0,0,1-1.24-.74Z" transform="translate(0.61 0.34)"/></g></svg>